<?xml version="1.0" encoding="UTF-8"?>
<svg width="429px" height="84px" viewBox="0 0 429 84" version="1.1" xmlns="http://www.w3.org/2000/svg" xmlns:xlink="http://www.w3.org/1999/xlink">
    <title>CNB FDIC black</title>
    <defs>
        <rect id="path-1" x="0" y="0" width="428" height="17"></rect>
    </defs>
    <g id="Page-1" stroke="none" stroke-width="1" fill="none" fill-rule="evenodd">
        <g id="CNB-FDIC-black">
            <g id="fdic-digital-sign-(1)" transform="translate(1, 67)">
                <mask id="mask-2" fill="white">
                    <use xlink:href="#path-1"></use>
                </mask>
                <g id="Rectangle"></g>
                <g id="Group" mask="url(#mask-2)" fill-rule="nonzero">
                    <path d="M37.9442374,4.06544997 C39.3740203,4.06544997 40.7488115,4.68596602 41.5956829,5.84140969 L41.5956829,0.813089994 C40.36387,0.299559471 39.132057,0 37.7902608,0 C35.5356032,0 33.2699473,0.984266834 31.6971862,2.61044682 C30.1684183,4.1938326 29.3435436,6.312146 29.3435436,8.51604783 C29.3435436,10.9125236 30.15742,13.0094399 31.9171528,14.6142228 C33.5779006,16.1334172 35.7005782,16.9893014 37.9332391,16.9893014 C39.231042,16.9893014 40.2208917,16.6683449 41.6066812,16.2404028 L41.6066812,11.2120831 C40.7378132,12.2605412 39.3740203,12.9238515 38.0212257,12.9238515 C35.4256199,12.9238515 33.6878838,11.0837004 33.6878838,8.53744493 C33.6878838,5.99118943 35.4036233,4.06544997 37.9552358,4.06544997 M24.6252602,16.5720579 L28.7826288,16.5720579 L28.7826288,0.427942102 L24.6252602,0.427942102 L24.6252602,16.5720579 Z M15.0897083,13.0201385 L14.1548503,13.0201385 L14.1548503,3.97986155 L15.1337017,3.97986155 C17.8172941,3.97986155 19.6980085,5.60604154 19.6980085,8.49465072 C19.6980085,11.6400252 17.5753308,13.0094399 15.0897083,13.0094399 M15.8815881,0.427942102 L9.97548503,0.427942102 L9.97548503,16.5720579 L15.8815881,16.5720579 C20.3249133,16.5720579 24.020352,13.0415356 24.020352,8.50534928 C24.020352,3.969163 20.3469099,0.427942102 15.8815881,0.427942102 M0,16.5613593 L4.15736862,16.5613593 L4.15736862,10.2278162 L8.72167545,10.2278162 L8.72167545,6.67589679 L4.15736862,6.67589679 L4.15736862,3.97986155 L9.19460362,3.97986155 L9.19460362,0.427942102 L0,0.427942102 L0,16.5720579 L0,16.5613593 Z" id="Shape" fill="#003256"></path>
                    <path d="M426.009302,11.7898049 C426.482231,11.7898049 426.889169,11.6400252 427.164127,11.5223411 L426.955159,10.8483323 C426.768187,10.9339207 426.54822,11.0302077 426.317256,11.0302077 C425.734344,11.0302077 425.536374,10.784141 425.536374,10.2920076 C425.536374,10.1315293 425.547372,10.0031466 425.569369,9.8533669 L426.284261,6.45122719 L427.857022,6.45122719 L428.010998,5.69162996 L426.460234,5.69162996 L426.801182,4.05475142 L425.987306,4.05475142 L425.536374,5.69162996 L424.579519,5.75582127 L424.436541,6.45122719 L425.327406,6.45122719 L424.612514,9.79987413 C424.590518,10.0245437 424.546524,10.2171177 424.546524,10.4631844 C424.546524,11.2013845 424.931466,11.7791064 426.009302,11.7791064 M417.320622,11.6293266 L418.277477,11.6293266 L419.146345,7.42479547 C419.916228,6.67589679 420.510137,6.34424166 420.983066,6.34424166 C421.60997,6.34424166 421.895927,6.66519824 421.895927,7.26431718 C421.895927,7.46758968 421.862932,7.63876652 421.796942,7.9597231 L421.038057,11.6293266 L421.994912,11.6293266 L422.775793,7.83134047 C422.852782,7.49968534 422.874778,7.29641284 422.874778,7.00755192 C422.874778,6.0874764 422.456842,5.53115167 421.433997,5.53115167 C420.664114,5.53115167 419.982218,5.98049087 419.289323,6.56891126 L419.24533,6.56891126 L419.333316,5.6809314 L418.541436,5.6809314 L417.33162,11.6293266 L417.320622,11.6293266 Z M412.140409,8.21648836 C412.45936,7.03964758 413.339227,6.28005035 414.230091,6.28005035 C415.120956,6.28005035 415.417911,6.93266205 415.417911,7.60667086 C415.417911,7.84203902 415.395914,8.02391441 415.351921,8.21648836 L412.140409,8.21648836 Z M411.073571,9.29704216 C411.073571,10.8911265 412.030425,11.7791064 413.471206,11.7791064 C414.263086,11.7791064 414.955981,11.4902454 415.450906,11.1478918 L415.076963,10.5273757 C414.692021,10.8055381 414.186098,11.0409062 413.702171,11.0409062 C412.635333,11.0409062 411.810459,10.3882945 412.041424,8.85840151 L416.022819,8.85840151 C416.099807,8.63373191 416.231787,8.17369415 416.231787,7.69225928 C416.231787,6.46192574 415.714866,5.54185022 414.351073,5.54185022 C412.756315,5.54185022 411.084569,7.06104468 411.084569,9.29704216 M400.691147,11.6400252 L401.648002,11.6400252 L402.51687,7.43549402 C403.231762,6.68659534 403.880663,6.35494021 404.243608,6.35494021 C404.848516,6.35494021 405.123474,6.67589679 405.123474,7.27501573 C405.123474,7.47828823 405.079481,7.64946507 405.024489,7.97042165 L404.265605,11.6400252 L405.222459,11.6400252 L406.091327,7.43549402 C406.817217,6.68659534 407.466118,6.35494021 407.818065,6.35494021 C408.422973,6.35494021 408.70893,6.67589679 408.70893,7.27501573 C408.70893,7.47828823 408.675935,7.64946507 408.609945,7.97042165 L407.840062,11.6400252 L408.807915,11.6400252 L409.588796,7.84203902 C409.654786,7.51038389 409.687781,7.30711139 409.687781,7.01825047 C409.687781,6.09817495 409.258846,5.54185022 408.236002,5.54185022 C407.609097,5.54185022 406.850212,5.98049087 406.069331,6.70799245 C405.981344,6.05538074 405.629397,5.54185022 404.661544,5.54185022 C404.023641,5.54185022 403.286753,5.99118943 402.64885,6.57960982 L402.604857,6.57960982 L402.692843,5.69162996 L401.900964,5.69162996 L400.691147,11.6400252 L400.691147,11.6400252 Z M393.89418,11.6400252 L394.851034,11.6400252 L395.719902,7.43549402 C396.489785,6.68659534 397.083695,6.35494021 397.556623,6.35494021 C398.183528,6.35494021 398.458486,6.67589679 398.458486,7.27501573 C398.458486,7.47828823 398.425491,7.64946507 398.359501,7.97042165 L397.600617,11.6400252 L398.557471,11.6400252 L399.338353,7.84203902 C399.415341,7.51038389 399.437338,7.30711139 399.437338,7.01825047 C399.437338,6.09817495 399.019401,5.54185022 397.985558,5.54185022 C397.215675,5.54185022 396.533779,5.99118943 395.851882,6.57960982 L395.796891,6.57960982 L395.884877,5.69162996 L395.092998,5.69162996 L393.883181,11.6400252 L393.89418,11.6400252 Z M389.329873,11.6400252 L390.286727,11.6400252 L391.056611,7.88483323 C391.573532,6.9219635 392.255428,6.38703587 392.860337,6.38703587 C393.091302,6.38703587 393.267275,6.41913153 393.388256,6.48332284 L393.729205,5.64883575 C393.553231,5.57394588 393.377258,5.54185022 393.146293,5.54185022 C392.387408,5.54185022 391.738507,6.10887351 391.243582,6.82567653 L391.188591,6.82567653 L391.331569,5.69162996 L390.539689,5.69162996 L389.329873,11.6400252 L389.329873,11.6400252 Z M384.14966,8.22718691 C384.468611,7.05034613 385.348477,6.2907489 386.239342,6.2907489 C387.130207,6.2907489 387.427162,6.9433606 387.427162,7.61736941 C387.427162,7.85273757 387.405165,8.03461296 387.361172,8.22718691 L384.14966,8.22718691 Z M383.082822,9.30774072 C383.082822,10.901825 384.039676,11.7898049 385.480457,11.7898049 C386.272337,11.7898049 386.965232,11.500944 387.460157,11.1585903 L387.086214,10.5380743 C386.701272,10.8162366 386.195349,11.0516048 385.711422,11.0516048 C384.644584,11.0516048 383.81971,10.3989931 384.050675,8.86910006 L388.03207,8.86910006 C388.109058,8.64443046 388.241038,8.1843927 388.241038,7.70295784 C388.241038,6.47262429 387.724117,5.55254877 386.360324,5.55254877 C384.765566,5.55254877 383.09382,7.07174323 383.09382,9.30774072 M378.452525,11.6507237 L379.607349,11.6507237 L382.862855,5.70232851 L381.895002,5.70232851 L380.091276,9.13656388 C379.772324,9.72498427 379.475369,10.3241032 379.189413,10.9125236 L379.14542,10.9125236 C379.07943,10.3348018 379.035436,9.71428571 378.969446,9.13656388 L378.518515,5.70232851 L377.56166,5.70232851 L378.452525,11.6507237 L378.452525,11.6507237 Z M372.931363,11.0195091 C372.084492,11.0195091 371.622562,10.4310887 371.622562,9.36123348 C371.622562,7.69225928 372.733393,6.33354311 373.855223,6.33354311 C374.702094,6.33354311 375.164024,6.93266205 375.164024,8.01321586 C375.164024,9.68219006 374.064191,11.0195091 372.931363,11.0195091 M372.832378,11.8005035 C374.504124,11.8005035 376.142875,10.1957206 376.142875,7.94902454 C376.142875,6.47262429 375.274007,5.56324733 373.954208,5.56324733 C372.282462,5.56324733 370.654709,7.16803021 370.654709,9.41472624 C370.654709,10.901825 371.512579,11.8005035 372.832378,11.8005035 M366.244379,11.8005035 C367.190235,11.8005035 367.982115,11.4688483 368.587023,10.9767149 L369.301914,7.49968534 L366.706309,7.49968534 L366.541334,8.28067967 L368.246075,8.28067967 L367.784145,10.4952801 C367.454195,10.7627439 366.981267,10.9874135 366.376359,10.9874135 C364.792599,10.9874135 364.187691,9.89616111 364.187691,8.46255507 C364.187691,6.5154185 365.441501,4.29011957 367.520185,4.29011957 C368.191083,4.29011957 368.642015,4.64317181 368.949968,5.15670233 L369.642863,4.65387036 C369.224926,3.969163 368.554028,3.46633103 367.564178,3.46633103 C364.858589,3.46633103 363.175845,6.00188798 363.175845,8.54814349 C363.175845,10.5059786 364.242683,11.7898049 366.23338,11.7898049 M357.885648,11.7898049 C358.358576,11.7898049 358.710523,11.3618628 358.710523,10.9446193 C358.710523,10.591567 358.501555,10.3241032 358.127611,10.3241032 C357.654683,10.3241032 357.28074,10.7627439 357.28074,11.1799874 C357.28074,11.5330396 357.511705,11.7898049 357.87465,11.7898049 M353.035385,11.7898049 C354.707131,11.7898049 355.905949,10.7627439 355.905949,9.32913782 C355.905949,8.44115796 355.455017,7.89553178 354.663138,7.44619257 L353.706283,6.88986784 C353.101375,6.53681561 352.639445,6.20516048 352.639445,5.58464443 C352.639445,4.96412838 353.211358,4.29011957 354.135218,4.29011957 C354.905101,4.29011957 355.477014,4.66456891 355.905949,5.15670233 L356.543852,4.58967904 C356.02693,3.93706734 355.180059,3.46633103 354.201208,3.46633103 C352.716433,3.46633103 351.638597,4.48269352 351.638597,5.69162996 C351.638597,6.60100692 352.199512,7.15733166 352.903405,7.5745752 L353.86026,8.14159849 C354.476166,8.50534928 354.894103,8.87979862 354.894103,9.46821901 C354.894103,10.3882945 354.124219,10.9874135 353.123371,10.9874135 C352.199512,10.9874135 351.48462,10.5594714 351.000694,9.8533669 L350.285802,10.377596 C350.956701,11.3297671 351.913555,11.8005035 353.035385,11.8005035 M347.635205,11.8005035 C348.108133,11.8005035 348.46008,11.3725614 348.46008,10.9553178 C348.46008,10.6022656 348.251111,10.3348018 347.877168,10.3348018 C347.40424,10.3348018 347.030297,10.7734424 347.030297,11.190686 C347.030297,11.5437382 347.261262,11.8005035 347.624207,11.8005035 M339.980367,8.13089994 C339.903379,8.53744493 339.859386,8.92259283 339.859386,9.26494651 C339.859386,10.9339207 340.783246,11.8005035 342.454992,11.8005035 C343.928768,11.8005035 345.083592,10.901825 345.545522,8.58023914 L346.579365,3.62680931 L345.622511,3.62680931 L344.599666,8.54814349 C344.247719,10.3027061 343.444841,10.9874135 342.498985,10.9874135 C341.34416,10.9874135 340.827239,10.3348018 340.827239,9.19005664 C340.827239,8.90119572 340.860234,8.5909377 340.937222,8.22718691 L341.883079,3.63750787 L340.904227,3.63750787 L339.980367,8.14159849 L339.980367,8.13089994 Z M331.92959,8.23788546 C332.237543,7.06104468 333.128408,6.30144745 334.019273,6.30144745 C334.910137,6.30144745 335.207092,6.95405916 335.207092,7.62806797 C335.207092,7.86343612 335.185096,8.04531152 335.141102,8.23788546 L331.92959,8.23788546 L331.92959,8.23788546 Z M330.862752,9.31843927 C330.862752,10.9125236 331.819607,11.8005035 333.260388,11.8005035 C334.052268,11.8005035 334.745163,11.5116425 335.240087,11.1692889 L334.866144,10.5487728 C334.481203,10.8269352 333.975279,11.0623033 333.491353,11.0623033 C332.424515,11.0623033 331.610639,10.4096916 331.830605,8.87979862 L335.812001,8.87979862 C335.888989,8.65512901 336.020969,8.19509125 336.020969,7.71365639 C336.020969,6.48332284 335.504047,5.56324733 334.140254,5.56324733 C332.545497,5.56324733 330.87375,7.08244179 330.87375,9.31843927 M323.977798,11.6614223 L324.934652,11.6614223 L325.80352,7.45689113 C326.573404,6.70799245 327.167313,6.37633732 327.640242,6.37633732 C328.267146,6.37633732 328.542105,6.6972939 328.542105,7.29641284 C328.542105,7.49968534 328.50911,7.67086218 328.44312,7.99181875 L327.684235,11.6614223 L328.64109,11.6614223 L329.421971,7.86343612 C329.498959,7.53178099 329.520956,7.3285085 329.520956,7.03964758 C329.520956,6.11957206 329.103019,5.56324733 328.080175,5.56324733 C327.332288,5.56324733 326.672389,5.99118943 325.979494,6.56891126 L325.9355,6.56891126 L326.13347,5.83071114 L326.738379,2.9528005 L325.770526,2.9528005 L323.977798,11.6614223 L323.977798,11.6614223 Z M321.52517,11.811202 C321.998098,11.811202 322.405037,11.6614223 322.679995,11.5437382 L322.471027,10.8697294 C322.284055,10.9553178 322.064088,11.0516048 321.833123,11.0516048 C321.250212,11.0516048 321.052242,10.8055381 321.052242,10.3134047 C321.052242,10.1529264 321.06324,10.0245437 321.085237,9.874764 L321.800128,6.47262429 L323.37289,6.47262429 L323.526866,5.71302706 L321.976102,5.71302706 L322.31705,4.07614852 L321.503174,4.07614852 L321.052242,5.71302706 L320.095387,5.77721838 L319.963407,6.47262429 L320.854272,6.47262429 L320.139381,9.82127124 C320.117384,10.0459408 320.073391,10.2385148 320.073391,10.4845815 C320.073391,11.2227816 320.458332,11.8005035 321.536169,11.8005035 M314.057304,6.46192574 L314.849184,6.46192574 L313.782346,11.6507237 L314.739201,11.6507237 L315.806039,6.46192574 L317.04885,6.46192574 L317.202827,5.70232851 L315.971014,5.70232851 L316.179982,4.68596602 C316.32296,3.9905601 316.65291,3.55191945 317.213825,3.55191945 C317.499782,3.55191945 317.719748,3.64820642 317.895721,3.75519194 L318.23667,3.08118313 C317.939715,2.91000629 317.598767,2.79232222 317.158833,2.79232222 C316.12499,2.79232222 315.476089,3.50912524 315.223127,4.71806167 L315.025157,5.71302706 L314.211281,5.77721838 L314.068303,6.47262429 L314.057304,6.46192574 Z M309.328023,11.0195091 C308.481151,11.0195091 308.019221,10.4310887 308.019221,9.36123348 C308.019221,7.69225928 309.130053,6.33354311 310.240884,6.33354311 C311.087755,6.33354311 311.549685,6.93266205 311.549685,8.01321586 C311.549685,9.68219006 310.449852,11.0195091 309.317024,11.0195091 M309.218039,11.8005035 C310.889785,11.8005035 312.528537,10.1957206 312.528537,7.94902454 C312.528537,6.47262429 311.659669,5.56324733 310.339869,5.56324733 C308.668123,5.56324733 307.04037,7.16803021 307.04037,9.41472624 C307.04037,10.901825 307.89824,11.8005035 309.218039,11.8005035 M302.377078,11.8005035 C302.850006,11.8005035 303.256945,11.6507237 303.531903,11.5330396 L303.322935,10.8590308 C303.135963,10.9446193 302.915996,11.0409062 302.685031,11.0409062 C302.10212,11.0409062 301.90415,10.7948395 301.90415,10.3027061 C301.90415,10.1422278 301.915148,10.0138452 301.937145,9.86406545 L302.652036,6.46192574 L304.224798,6.46192574 L304.378774,5.70232851 L302.82801,5.70232851 L303.168958,4.06544997 L302.355082,4.06544997 L301.90415,5.70232851 L300.947295,5.76651982 L300.804317,6.46192574 L301.695182,6.46192574 L300.98029,9.81057269 C300.958294,10.0352423 300.9143,10.2278162 300.9143,10.4738829 C300.9143,11.2120831 301.299242,11.7898049 302.377078,11.7898049 M299.319543,4.46129641 C299.704484,4.46129641 300.045432,4.16173694 300.045432,3.7658905 C300.045432,3.41283826 299.759476,3.19886721 299.429526,3.19886721 C299.044584,3.19886721 298.703636,3.50912524 298.703636,3.90497168 C298.703636,4.25802391 298.989593,4.46129641 299.319543,4.46129641 M297.284852,11.6400252 L298.241706,11.6400252 L299.473519,5.69162996 L298.505666,5.69162996 L297.284852,11.6400252 Z M292.544572,11.0088106 C291.862675,11.0088106 291.422742,10.5166772 291.422742,9.48961611 C291.422742,7.85273757 292.55557,6.33354311 293.776384,6.33354311 C294.238314,6.33354311 294.667249,6.59030837 295.019196,7.21082442 L294.469279,9.86406545 C293.853373,10.6343612 293.182475,10.998112 292.544572,10.998112 M295.228164,6.40843298 L295.195169,6.40843298 C294.898214,5.8842039 294.403289,5.54185022 293.743389,5.54185022 C292.038648,5.54185022 290.432892,7.33920705 290.432892,9.62869729 C290.432892,11.0195091 291.125787,11.7791064 292.192625,11.7791064 C292.962508,11.7791064 293.721393,11.3618628 294.315303,10.7520453 L294.359296,10.7520453 L294.260311,11.6293266 L295.052191,11.6293266 L296.866915,2.92070485 L295.899062,2.92070485 L295.426134,5.24229075 L295.228164,6.40843298 L295.228164,6.40843298 Z M285.142696,8.21648836 C285.461647,7.03964758 286.341514,6.28005035 287.232378,6.28005035 C288.123243,6.28005035 288.420198,6.93266205 288.420198,7.60667086 C288.420198,7.84203902 288.398201,8.02391441 288.354208,8.21648836 L285.142696,8.21648836 L285.142696,8.21648836 Z M284.075858,9.29704216 C284.075858,10.8911265 285.032712,11.7791064 286.473494,11.7791064 C287.265373,11.7791064 287.958268,11.4902454 288.453193,11.1478918 L288.07925,10.5273757 C287.694308,10.8055381 287.188385,11.0409062 286.704458,11.0409062 C285.63762,11.0409062 284.812746,10.3882945 285.043711,8.85840151 L289.025106,8.85840151 C289.102094,8.63373191 289.234074,8.17369415 289.234074,7.69225928 C289.234074,6.46192574 288.717153,5.54185022 287.35336,5.54185022 C285.758602,5.54185022 284.086856,7.06104468 284.086856,9.29704216 M279.522549,11.6400252 L280.479404,11.6400252 L281.249287,7.88483323 C281.766208,6.9219635 282.448105,6.38703587 283.042015,6.38703587 C283.27298,6.38703587 283.448953,6.41913153 283.569934,6.48332284 L283.910883,5.64883575 C283.734909,5.57394588 283.558936,5.54185022 283.327971,5.54185022 C282.580085,5.54185022 281.920185,6.10887351 281.42526,6.82567653 L281.381267,6.82567653 L281.513247,5.69162996 L280.721367,5.69162996 L279.511551,11.6400252 L279.522549,11.6400252 Z M276.190055,11.7898049 C277.08092,11.7898049 277.707825,11.4260541 278.158756,11.094399 L277.729821,10.4845815 C277.355878,10.7627439 276.915945,11.0088106 276.366029,11.0088106 C275.398176,11.0088106 274.914249,10.4203902 274.914249,9.35053493 C274.914249,7.72435494 276.058075,6.32284456 277.27889,6.32284456 C277.751818,6.32284456 278.048773,6.4940214 278.356726,6.85777218 L278.917641,6.26935179 C278.554696,5.8628068 278.059771,5.55254877 277.333882,5.55254877 C275.56315,5.55254877 273.924399,7.18942731 273.924399,9.40402769 C273.924399,10.9232222 274.837261,11.7898049 276.179057,11.7898049 M266.918463,11.0088106 C266.236567,11.0088106 265.796634,10.5166772 265.796634,9.48961611 C265.796634,7.85273757 266.929462,6.33354311 268.150276,6.33354311 C268.612206,6.33354311 269.041141,6.59030837 269.393087,7.21082442 L268.843171,9.86406545 C268.227265,10.6343612 267.556366,10.998112 266.918463,10.998112 M269.602056,6.40843298 L269.569061,6.40843298 C269.272106,5.8842039 268.777181,5.54185022 268.117281,5.54185022 C266.423538,5.54185022 264.806784,7.33920705 264.806784,9.62869729 C264.806784,11.0195091 265.499679,11.7791064 266.566517,11.7791064 C267.3364,11.7791064 268.106283,11.3618628 268.689194,10.7520453 L268.733188,10.7520453 L268.634203,11.6293266 L269.426082,11.6293266 L271.240807,2.92070485 L270.272954,2.92070485 L269.800026,5.24229075 L269.602056,6.40843298 Z M257.866838,11.6293266 L258.823693,11.6293266 L259.692561,7.42479547 C260.462444,6.67589679 261.045355,6.34424166 261.529282,6.34424166 C262.156187,6.34424166 262.431145,6.66519824 262.431145,7.26431718 C262.431145,7.46758968 262.39815,7.63876652 262.33216,7.9597231 L261.573275,11.6293266 L262.53013,11.6293266 L263.311011,7.83134047 C263.387999,7.49968534 263.409996,7.29641284 263.409996,7.00755192 C263.409996,6.0874764 262.99206,5.53115167 261.958217,5.53115167 C261.188334,5.53115167 260.506437,5.98049087 259.824541,6.56891126 L259.769549,6.56891126 L259.857536,5.6809314 L259.065656,5.6809314 L257.85584,11.6293266 L257.866838,11.6293266 Z M253.11556,10.998112 C252.433663,10.998112 251.99373,10.5059786 251.99373,9.47891756 C251.99373,7.84203902 253.126558,6.32284456 254.347372,6.32284456 C254.809302,6.32284456 255.238237,6.57960982 255.590184,7.20012587 L255.040267,9.8533669 C254.435359,10.6236627 253.753463,10.9874135 253.11556,10.9874135 M252.763613,11.7684078 C253.533496,11.7684078 254.292381,11.3511643 254.886291,10.7413468 L254.930284,10.7413468 L254.831299,11.6186281 L255.623179,11.6186281 L256.843993,5.67023285 L256.063112,5.67023285 L255.821149,6.40843298 L255.777155,6.40843298 C255.491199,5.87350535 254.963279,5.52045312 254.303379,5.52045312 C252.609636,5.52045312 250.992882,7.31780994 250.992882,9.60730019 C250.992882,10.998112 251.685777,11.7577093 252.752615,11.7577093 M241.941257,11.6079295 L242.898111,11.6079295 L243.766979,7.40339836 C244.536862,6.65449969 245.119774,6.32284456 245.6037,6.32284456 C246.230605,6.32284456 246.505563,6.64380113 246.505563,7.24292008 C246.505563,7.44619257 246.472568,7.61736941 246.406578,7.93832599 L245.647694,11.6079295 L246.604548,11.6079295 L247.38543,7.80994336 C247.462418,7.47828823 247.484415,7.27501573 247.484415,6.98615481 C247.484415,6.0660793 247.066478,5.50975456 246.032635,5.50975456 C245.284749,5.50975456 244.624849,5.93769666 243.931954,6.5154185 L243.876963,6.5154185 L244.074933,5.77721838 L244.679841,2.89930774 L243.711988,2.89930774 L241.91926,11.6079295 L241.941257,11.6079295 Z M239.488629,11.7577093 C239.961557,11.7577093 240.368495,11.6079295 240.643454,11.4902454 L240.434485,10.8162366 C240.247514,10.901825 240.027547,10.998112 239.796582,10.998112 C239.213671,10.998112 239.015701,10.7520453 239.015701,10.2599119 C239.015701,10.0994336 239.026699,9.97105098 239.048696,9.82127124 L239.763587,6.41913153 L241.336348,6.41913153 L241.490325,5.6595343 L239.939561,5.6595343 L240.280509,4.02265576 L239.466632,4.02265576 L239.015701,5.6595343 L238.058846,5.72372561 L237.915868,6.41913153 L238.806733,6.41913153 L238.091841,9.76777848 C238.069845,9.99244808 238.025851,10.185022 238.025851,10.4310887 C238.025851,11.1692889 238.410793,11.7470107 239.488629,11.7470107 M236.431093,4.4185022 C236.816035,4.4185022 237.156983,4.11894273 237.156983,3.72309629 C237.156983,3.37004405 236.871027,3.156073 236.541077,3.156073 C236.156135,3.156073 235.815187,3.46633103 235.815187,3.86217747 C235.815187,4.2152297 236.101144,4.4185022 236.431093,4.4185022 M234.396402,11.597231 L235.353257,11.597231 L236.58507,5.64883575 L235.617217,5.64883575 L234.396402,11.597231 Z M229.634126,10.9660164 C228.952229,10.9660164 228.512296,10.4738829 228.512296,9.4468219 C228.512296,7.80994336 229.645124,6.2907489 230.865939,6.2907489 C231.327868,6.2907489 231.756803,6.54751416 232.10875,7.16803021 L231.558833,9.82127124 C230.953925,10.591567 230.272029,10.9553178 229.634126,10.9553178 M229.282179,11.7363121 C230.052062,11.7363121 230.810947,11.3190686 231.404857,10.7092511 L231.44885,10.7092511 L231.349865,11.5865324 L232.141745,11.5865324 L233.362559,5.63813719 L232.581678,5.63813719 L232.339715,6.37633732 L232.295721,6.37633732 C232.009765,5.84140969 231.481845,5.48835746 230.821945,5.48835746 C229.117204,5.48835746 227.511448,7.28571429 227.511448,9.57520453 C227.511448,10.9660164 228.204343,11.7256136 229.271181,11.7256136 M224.123962,6.38703587 L224.915842,6.38703587 L223.849004,11.5758339 L224.805859,11.5758339 L225.872697,6.38703587 L227.115508,6.38703587 L227.269485,5.62743864 L226.037672,5.62743864 L226.24664,4.61107615 C226.389618,3.91567023 226.719568,3.47702958 227.280483,3.47702958 C227.56644,3.47702958 227.786406,3.57331655 227.96238,3.68030208 L228.303328,3.00629327 C227.995375,2.83511643 227.665425,2.71743235 227.225491,2.71743235 C226.191648,2.71743235 225.542747,3.43423537 225.289785,4.64317181 L225.091815,5.63813719 L224.277939,5.70232851 L224.134961,6.39773442 L224.123962,6.38703587 Z M219.141719,11.7256136 C219.405679,11.7256136 219.581652,11.6935179 219.746627,11.6293266 L219.746627,10.9125236 C219.625646,10.9446193 219.581652,10.9446193 219.537659,10.9446193 C219.405679,10.9446193 219.328691,10.8697294 219.328691,10.7199497 C219.328691,10.6771554 219.328691,10.6129641 219.350687,10.4845815 L220.923449,2.85651353 L219.955596,2.85651353 L218.404831,10.4310887 C218.349839,10.6343612 218.327843,10.8055381 218.327843,10.9446193 C218.327843,11.4367527 218.602801,11.714915 219.141719,11.714915 M215.875215,11.714915 C216.139175,11.714915 216.315148,11.6828194 216.480123,11.6186281 L216.480123,10.901825 C216.348143,10.9339207 216.315148,10.9339207 216.271155,10.9339207 C216.139175,10.9339207 216.062187,10.8590308 216.062187,10.7092511 C216.062187,10.6664569 216.062187,10.6022656 216.084183,10.4738829 L217.656945,2.84581498 L216.689092,2.84581498 L215.138327,10.4203902 C215.083335,10.6236627 215.061339,10.7948395 215.061339,10.9339207 C215.061339,11.4260541 215.336297,11.7042165 215.886214,11.7042165 M213.917513,5.61674009 L212.960658,5.61674009 L212.09179,9.82127124 C211.343903,10.5701699 210.760992,10.901825 210.277065,10.901825 C209.650161,10.901825 209.375202,10.5808685 209.375202,9.98174953 C209.375202,9.77847703 209.408197,9.60730019 209.474187,9.28634361 L210.24407,5.61674009 L209.276217,5.61674009 L208.495336,9.41472624 C208.418348,9.73568282 208.396351,9.94965387 208.396351,10.2385148 C208.396351,11.1371932 208.814288,11.714915 209.837132,11.714915 C210.585019,11.714915 211.288912,11.2441787 211.948812,10.6664569 L211.992805,10.6664569 L211.89382,11.5651353 L212.6857,11.5651353 L213.906514,5.61674009 L213.917513,5.61674009 Z M204.711911,6.37633732 L205.50379,6.37633732 L204.436952,11.5651353 L205.393807,11.5651353 L206.460645,6.37633732 L207.703456,6.37633732 L207.857433,5.61674009 L206.62562,5.61674009 L206.834588,4.6003776 C206.977566,3.90497168 207.307516,3.46633103 207.868431,3.46633103 C208.154388,3.46633103 208.374354,3.562618 208.550328,3.66960352 L208.891276,2.99559471 C208.583323,2.82441787 208.253373,2.70673379 207.81344,2.70673379 C206.779597,2.70673379 206.130695,3.42353682 205.877734,4.63247325 L205.679764,5.62743864 L204.865887,5.69162996 L204.722909,6.38703587 L204.711911,6.37633732 Z M196.958088,8.15229704 C197.27704,6.97545626 198.156906,6.21585903 199.047771,6.21585903 C199.938635,6.21585903 200.23559,6.86847074 200.23559,7.54247955 C200.23559,7.7778477 200.213594,7.9597231 200.1696,8.15229704 L196.958088,8.15229704 L196.958088,8.15229704 Z M195.89125,9.23285085 C195.89125,10.8269352 196.848105,11.714915 198.288886,11.714915 C199.080766,11.714915 199.773661,11.4260541 200.268585,11.0837004 L199.894642,10.4631844 C199.509701,10.7413468 199.003777,10.9767149 198.519851,10.9767149 C197.453013,10.9767149 196.628138,10.3241032 196.859103,8.7942102 L200.840499,8.7942102 C200.917487,8.56954059 201.049467,8.10950283 201.049467,7.62806797 C201.049467,6.39773442 200.532545,5.4776589 199.168752,5.4776589 C197.573995,5.4776589 195.902248,6.99685337 195.902248,9.23285085 M189.017294,11.5758339 L189.974149,11.5758339 L190.843017,7.37130271 C191.6129,6.62240403 192.195811,6.2907489 192.679738,6.2907489 C193.306643,6.2907489 193.581601,6.61170548 193.581601,7.21082442 C193.581601,7.41409692 193.548606,7.58527376 193.482616,7.90623033 L192.723731,11.5758339 L193.680586,11.5758339 L194.461467,7.7778477 C194.538456,7.44619257 194.560452,7.24292008 194.560452,6.95405916 C194.560452,6.03398364 194.142516,5.4776589 193.108673,5.4776589 C192.360786,5.4776589 191.700887,5.90560101 191.007992,6.48332284 L190.953,6.48332284 L191.15097,5.74512272 L191.755878,2.86721208 L190.788025,2.86721208 L188.995297,11.5758339 L189.017294,11.5758339 Z M186.564667,11.7256136 C187.037595,11.7256136 187.444533,11.5758339 187.719491,11.4581498 L187.510523,10.784141 C187.323551,10.8697294 187.103585,10.9660164 186.87262,10.9660164 C186.289708,10.9660164 186.091738,10.7199497 186.091738,10.2278162 C186.091738,10.0673379 186.102737,9.93895532 186.124733,9.78917558 L186.839625,6.38703587 L188.412386,6.38703587 L188.566363,5.62743864 L187.015598,5.62743864 L187.356546,3.9905601 L186.54267,3.9905601 L186.091738,5.62743864 L185.134884,5.69162996 L184.991905,6.38703587 L185.88277,6.38703587 L185.167879,9.73568282 C185.145882,9.96035242 185.101889,10.1529264 185.101889,10.3989931 C185.101889,11.1371932 185.48683,11.714915 186.564667,11.714915 M176.116253,14.1220894 C177.282076,14.1220894 178.029963,13.2341095 178.667866,12.0679673 L182.26432,5.61674009 L181.307465,5.61674009 L179.547732,8.95468848 C179.250777,9.52171177 178.931826,10.1636249 178.645869,10.7306482 L178.601876,10.7306482 C178.546884,10.1636249 178.491893,9.50031466 178.403906,8.95468848 L177.930978,5.61674009 L176.974123,5.61674009 L178.018964,11.5758339 L177.787999,12.003776 C177.370063,12.8275645 176.809148,13.3624921 176.193242,13.3624921 C176.028267,13.3624921 175.885288,13.3303965 175.74231,13.2555066 L175.423359,13.9509125 C175.665322,14.0792952 175.951278,14.1220894 176.127252,14.1220894 M173.465656,6.24795469 C174.158551,6.24795469 174.587486,6.75078666 174.587486,7.7564506 C174.587486,9.41472624 173.465656,10.9232222 172.244841,10.9232222 C171.771913,10.9232222 171.342978,10.6664569 171.00203,10.0459408 L171.584942,7.22152297 C172.167853,6.62240403 172.904741,6.25865324 173.465656,6.25865324 M170.518104,11.5758339 L170.771065,10.8269352 L170.80406,10.8269352 C171.090017,11.3618628 171.617937,11.714915 172.277836,11.714915 C173.960581,11.714915 175.577335,9.91755821 175.577335,7.62806797 C175.577335,6.22655758 174.88444,5.4776589 173.817602,5.4776589 C173.058718,5.4776589 172.343826,5.8842039 171.738918,6.35494021 L171.716921,6.35494021 L171.99188,5.17809943 L172.486805,2.85651353 L171.518952,2.85651353 L169.726224,11.5651353 L170.518104,11.5651353 L170.518104,11.5758339 Z M162.797276,10.9446193 C162.11538,10.9446193 161.675446,10.4524858 161.675446,9.4254248 C161.675446,7.78854626 162.808274,6.26935179 164.029089,6.26935179 C164.491019,6.26935179 164.919954,6.52611705 165.2719,7.1466331 L164.721984,9.79987413 C164.106077,10.5701699 163.435179,10.9339207 162.797276,10.9339207 M165.480869,6.34424166 L165.447874,6.34424166 C165.150919,5.82001259 164.655994,5.4776589 163.996094,5.4776589 C162.302351,5.4776589 160.685597,7.27501573 160.685597,9.56450598 C160.685597,10.9553178 161.378492,11.714915 162.44533,11.714915 C163.215213,11.714915 163.985096,11.2976715 164.568007,10.687854 L164.612001,10.687854 L164.513016,11.5651353 L165.304895,11.5651353 L167.11962,2.85651353 L166.151767,2.85651353 L165.678838,5.17809943 L165.480869,6.34424166 Z M155.3954,8.15229704 C155.714352,6.97545626 156.594218,6.21585903 157.485083,6.21585903 C158.375948,6.21585903 158.672902,6.86847074 158.672902,7.54247955 C158.672902,7.7778477 158.650906,7.9597231 158.606913,8.15229704 L155.3954,8.15229704 L155.3954,8.15229704 Z M154.328562,9.23285085 C154.328562,10.8269352 155.285417,11.714915 156.737196,11.714915 C157.529076,11.714915 158.221971,11.4260541 158.716896,11.0837004 L158.342953,10.4631844 C157.958011,10.7413468 157.452088,10.9767149 156.968161,10.9767149 C155.901323,10.9767149 155.076449,10.3241032 155.307414,8.7942102 L159.288809,8.7942102 C159.365797,8.56954059 159.497777,8.10950283 159.497777,7.62806797 C159.497777,6.39773442 158.980856,5.4776589 157.617063,5.4776589 C156.022305,5.4776589 154.350559,6.99685337 154.350559,9.23285085 M148.136503,11.5758339 L149.093357,11.5758339 L149.423307,10.0673379 L150.831093,8.67652612 L151.996916,11.5758339 L152.975768,11.5758339 L151.501992,8.10950283 L153.943621,5.62743864 L152.832789,5.62743864 L149.698265,8.77281309 L149.676269,8.77281309 L150.886085,2.85651353 L149.918232,2.85651353 L148.125504,11.5651353 L148.136503,11.5758339 Z M144.804009,11.7256136 C145.694873,11.7256136 146.332777,11.3618628 146.77271,11.0302077 L146.343775,10.4203902 C145.969832,10.6985525 145.529898,10.9446193 144.979982,10.9446193 C144.012129,10.9446193 143.528202,10.3561989 143.528202,9.28634361 C143.528202,7.66016362 144.672029,6.25865324 145.892843,6.25865324 C146.365772,6.25865324 146.662726,6.42983008 146.97068,6.79358087 L147.542593,6.20516048 C147.179648,5.79861548 146.684723,5.48835746 145.958833,5.48835746 C144.188102,5.48835746 142.549351,7.125236 142.549351,9.33983638 C142.549351,10.8590308 143.462213,11.7256136 144.804009,11.7256136 M137.721084,10.9446193 C137.039188,10.9446193 136.599255,10.4524858 136.599255,9.4254248 C136.599255,7.78854626 137.732083,6.26935179 138.952897,6.26935179 C139.414827,6.26935179 139.843762,6.52611705 140.195709,7.1466331 L139.645792,9.79987413 C139.040884,10.5701699 138.358988,10.9339207 137.721084,10.9339207 M137.369138,11.714915 C138.139021,11.714915 138.897906,11.2976715 139.491815,10.687854 L139.535809,10.687854 L139.436824,11.5651353 L140.228704,11.5651353 L141.449518,5.61674009 L140.668637,5.61674009 L140.426674,6.35494021 L140.38268,6.35494021 C140.096724,5.82001259 139.568804,5.46696035 138.908904,5.46696035 C137.204163,5.46696035 135.598407,7.26431718 135.598407,9.55380743 C135.598407,10.9446193 136.291302,11.7042165 137.35814,11.7042165 M129.065399,10.8162366 L129.7143,7.68156073 L131.177078,7.68156073 C132.397893,7.68156073 133.057793,8.23788546 133.057793,9.0402769 C133.057793,10.2920076 132.067943,10.8162366 130.495182,10.8162366 L129.065399,10.8162366 Z M129.857279,6.98615481 L130.407195,4.27942102 L131.551021,4.27942102 C132.793833,4.27942102 133.354748,4.70736312 133.354748,5.44556325 C133.354748,6.35494021 132.617859,6.98615481 131.045098,6.98615481 L129.857279,6.98615481 L129.857279,6.98615481 Z M127.943569,11.5651353 L130.583168,11.5651353 C132.551869,11.5651353 134.014647,10.784141 134.014647,8.99748269 C134.014647,8.07740717 133.343749,7.56387665 132.496878,7.37130271 L132.496878,7.3285085 C133.409739,7.13593455 134.344597,6.40843298 134.344597,5.31718062 C134.344597,4.15103839 133.376744,3.54122089 131.792985,3.54122089 L129.593319,3.54122089 L127.943569,11.5651353 L127.943569,11.5651353 Z M121.762508,8.84770296 L124.501092,8.84770296 L124.666067,8.13089994 L121.916485,8.13089994 L121.762508,8.84770296 Z M114.778569,10.9339207 C114.096672,10.9339207 113.656739,10.4417873 113.656739,9.41472624 C113.656739,7.7778477 114.789567,6.25865324 116.010382,6.25865324 C116.472311,6.25865324 116.901246,6.5154185 117.253193,7.13593455 L116.703276,9.78917558 C116.08737,10.5594714 115.416472,10.9232222 114.778569,10.9232222 M117.462161,6.33354311 L117.429166,6.33354311 C117.132211,5.80931403 116.637286,5.46696035 115.977387,5.46696035 C114.272646,5.46696035 112.666889,7.26431718 112.666889,9.55380743 C112.666889,10.9446193 113.359784,11.7042165 114.426622,11.7042165 C115.196505,11.7042165 115.95539,11.2869729 116.5493,10.6771554 L116.593293,10.6771554 L116.494308,11.5544368 L117.286188,11.5544368 L119.100912,2.84581498 L118.133059,2.84581498 L117.660131,5.16740088 L117.462161,6.33354311 Z M107.376693,8.14159849 C107.695644,6.96475771 108.575511,6.20516048 109.466375,6.20516048 C110.35724,6.20516048 110.654195,6.85777218 110.654195,7.53178099 C110.654195,7.76714915 110.632198,7.94902454 110.588205,8.14159849 L107.376693,8.14159849 Z M106.309855,9.2221523 C106.309855,10.8162366 107.266709,11.7042165 108.707491,11.7042165 C109.49937,11.7042165 110.192265,11.4153556 110.68719,11.0730019 L110.313247,10.4524858 C109.928305,10.7306482 109.422382,10.9660164 108.938456,10.9660164 C107.871618,10.9660164 107.046743,10.3134047 107.277708,8.78351164 L111.259103,8.78351164 C111.336091,8.55884204 111.468071,8.09880428 111.468071,7.61736941 C111.468071,6.38703587 110.95115,5.46696035 109.587357,5.46696035 C107.992599,5.46696035 106.320853,6.98615481 106.320853,9.2221523 M101.756546,11.5651353 L102.713401,11.5651353 L103.483284,7.80994336 C104.000206,6.84707363 104.682102,6.312146 105.276012,6.312146 C105.506977,6.312146 105.68295,6.34424166 105.803932,6.40843298 L106.14488,5.57394588 C105.968907,5.49905601 105.792933,5.46696035 105.561968,5.46696035 C104.814082,5.46696035 104.154182,6.03398364 103.659257,6.75078666 L103.615264,6.75078666 L103.747244,5.61674009 L102.955364,5.61674009 L101.745548,11.5651353 L101.756546,11.5651353 Z M100.733702,5.61674009 L99.776847,5.61674009 L98.9079789,9.82127124 C98.1600925,10.5701699 97.577181,10.901825 97.0932545,10.901825 C96.4663497,10.901825 96.1913915,10.5808685 96.1913915,9.98174953 C96.1913915,9.77847703 96.2243865,9.60730019 96.2903765,9.28634361 L97.0602595,5.61674009 L96.0924065,5.61674009 L95.3115251,9.41472624 C95.2345368,9.73568282 95.2125402,9.94965387 95.2125402,10.2385148 C95.2125402,11.1371932 95.6304767,11.714915 96.6533213,11.714915 C97.4012078,11.714915 98.1051009,11.2441787 98.7650006,10.6664569 L98.808994,10.6664569 L98.710009,11.5651353 L99.5018887,11.5651353 L100.722703,5.61674009 L100.733702,5.61674009 Z M91.3631248,11.7042165 C92.6829243,11.7042165 93.6507773,10.9874135 93.6507773,9.874764 C93.6507773,9.2221523 93.3098291,8.77281309 92.2209945,8.1843927 C91.671078,7.88483323 91.1431582,7.62806797 91.1431582,7.125236 C91.1431582,6.62240403 91.6490813,6.19446193 92.2979828,6.19446193 C92.8478993,6.19446193 93.2438391,6.45122719 93.5627907,6.78288232 L94.1127072,6.25865324 C93.6617757,5.79861548 93.0568675,5.46696035 92.3199794,5.46696035 C91.1761532,5.46696035 90.2192985,6.18376337 90.2192985,7.24292008 C90.2192985,7.91692889 90.67023,8.36626809 91.6160863,8.86910006 C92.4739561,9.31843927 92.737916,9.56450598 92.737916,9.99244808 C92.737916,10.5273757 92.1440062,10.9874135 91.4401131,10.9874135 C90.8022099,10.9874135 90.2412951,10.6343612 89.8673519,10.1208307 L89.2624438,10.591567 C89.6803803,11.2120831 90.5492484,11.714915 91.3631248,11.714915 M82.8614159,11.5651353 L83.8182706,11.5651353 L84.6871386,7.36060415 C85.4570217,6.61170548 86.0509315,6.28005035 86.5238597,6.28005035 C87.1507645,6.28005035 87.4367211,6.60100692 87.4367211,7.20012587 C87.4367211,7.40339836 87.4037261,7.5745752 87.3377361,7.89553178 L86.5788513,11.5651353 L87.535706,11.5651353 L88.3165874,7.76714915 C88.3935757,7.43549402 88.4155724,7.23222152 88.4155724,6.9433606 C88.4155724,6.02328508 87.9976359,5.46696035 86.9747912,5.46696035 C86.2049081,5.46696035 85.5230117,5.91629956 84.8301169,6.50471995 L84.7861236,6.50471995 L84.8741102,5.61674009 L84.0822305,5.61674009 L82.8724142,11.5651353 L82.8614159,11.5651353 Z M79.5179237,11.5651353 L80.496775,11.5651353 L82.1465245,3.54122089 L81.1676731,3.54122089 L79.5179237,11.5651353 Z M75.2835667,8.84770296 L78.0221508,8.84770296 L78.1871258,8.13089994 L75.4375434,8.13089994 L75.2835667,8.84770296 Z M71.7091096,11.714915 C72.6989593,11.714915 73.4688423,11.2976715 74.0737505,10.784141 L73.6338173,10.1743235 C73.0948991,10.6129641 72.555981,10.8911265 71.8850829,10.8911265 C70.4003084,10.8911265 69.7844019,9.84266834 69.7844019,8.37696665 C69.7844019,6.42983008 71.0272132,4.20453115 72.9959142,4.20453115 C73.622819,4.20453115 74.0627522,4.55758339 74.392702,5.07111391 L75.0745985,4.56828194 C74.6676603,3.88357458 73.9967622,3.38074261 73.0509058,3.38074261 C70.4992933,3.38074261 68.7835539,5.93769666 68.7835539,8.46255507 C68.7835539,10.3882945 69.8283952,11.7042165 71.7091096,11.7042165 M65.1101118,11.5544368 L66.0889631,11.5544368 L67.7387126,3.53052234 L66.7598612,3.53052234 L65.1101118,11.5544368 Z M58.5331106,10.7734424 L59.8639085,4.30081812 L60.545805,4.30081812 C62.2065527,4.30081812 63.0864191,5.21019509 63.0864191,6.72938955 C63.0864191,9.11516677 61.7556212,10.784141 59.6109469,10.784141 L58.5331106,10.784141 L58.5331106,10.7734424 Z M57.4002827,11.5544368 L59.6109469,11.5544368 C62.4045227,11.5544368 64.0762688,9.57520453 64.0762688,6.65449969 C64.0762688,4.68596602 62.8664525,3.51982379 60.5787999,3.51982379 L59.0390338,3.51982379 L57.3892843,11.5437382 L57.4002827,11.5544368 Z M51.2522164,11.5544368 L52.2310677,11.5544368 L52.9899525,7.91692889 L56.0144931,7.91692889 L56.1794681,7.11453744 L53.1439291,7.11453744 L53.7158422,4.32221523 L57.3012977,4.32221523 L57.4662726,3.53052234 L52.9129642,3.53052234 L51.2632147,11.5544368 L51.2522164,11.5544368 Z" id="Shape" fill="#231F20"></path>
                </g>
            </g>
            <g id="6531c1f9024e860a429f7d34_cnb" fill-rule="nonzero">
                <path d="M147.371567,14.8348117 L147.371567,37.6693618 L143.692084,37.6693618 L131.803472,20.8717035 L131.803472,37.6693618 L128.028312,37.6693618 L128.028312,14.8348117 L129.611091,14.8348117 C130.507726,14.8348117 131.699594,15.0045398 132.354301,15.6861682 C132.712409,16.0595702 132.970738,16.5619656 133.268705,16.9842493 C133.565305,17.4051752 133.861905,17.8261011 134.158505,18.2456691 C134.928026,19.3387186 135.697546,20.4304102 136.467067,21.5234597 C137.333631,22.7522917 138.200196,23.9811237 139.066761,25.2099557 C139.860884,26.3369508 140.656374,27.4653037 141.450497,28.5922988 C142.005426,29.3798376 142.561723,30.1673763 143.116652,30.9549151 C143.275203,31.1816719 143.433755,31.4070709 143.593673,31.63247 L143.593673,14.8348117 L147.371567,14.8348117" id="Fill-1" fill="#0A0B09"></path>
                <path d="M200.121299,25.42585 C199.321708,26.3966951 198.92533,27.7463736 198.92533,29.4884636 C198.92533,31.2291958 199.321708,32.5870212 200.121299,33.5646555 C200.919522,34.5422898 202.085421,35.0324648 203.618994,35.0324648 C205.148467,35.0324648 206.311632,34.5422898 207.098921,33.5646555 C207.88621,32.5870212 208.279855,31.2291958 208.279855,29.4884636 C208.279855,27.7463736 207.88621,26.3966951 207.098921,25.42585 C206.311632,24.4590783 205.148467,23.9743346 203.618994,23.9743346 C202.085421,23.9743346 200.919522,24.4590783 200.121299,25.42585 Z M197.494268,35.7018727 C196.080975,34.2123383 195.377062,32.1389388 195.377062,29.4884636 C195.377062,26.8366306 196.080975,24.764589 197.494268,23.2750545 C198.906195,21.78552 200.946859,21.0400738 203.618994,21.0400738 C206.266527,21.0400738 208.303091,21.78552 209.725952,23.2750545 C211.150179,24.764589 211.862293,26.8366306 211.862293,29.4884636 C211.862293,32.1389388 211.15428,34.2123383 209.740987,35.7018727 C208.32906,37.1914072 206.288396,37.9354956 203.618994,37.9354956 C200.946859,37.9354956 198.906195,37.1914072 197.494268,35.7018727 L197.494268,35.7018727 Z" id="Fill-2" fill="#0A0B09"></path>
                <polygon id="Fill-3" fill="#0A0B09" points="254.803716 37.7807035 258.350617 37.7807035 258.350617 16.2673175 254.803716 16.2673175"></polygon>
                <path d="M229.237325,22.695263 C228.261414,21.5750571 226.848121,21.0129173 225.007013,21.0129173 C223.730402,21.0129173 222.557669,21.2994185 221.483348,21.8764943 C220.419961,22.4494966 219.545195,23.131125 218.848117,23.9227372 L218.848117,21.0672304 L215.288914,21.0672304 L215.288914,37.6639305 L218.848117,37.6639305 L218.848117,26.7687393 C220.403559,24.958758 222.139422,24.0530885 224.050238,24.0530885 C226.092269,24.0530885 227.114651,25.3511696 227.114651,27.9459739 L227.114651,35.4384546 C227.114651,36.9239156 227.892373,37.6639305 229.449182,37.6639305 L230.702557,37.6639305 L230.702557,27.6214537 C230.702557,25.4597956 230.213235,23.8195425 229.237325,22.695263" id="Fill-4" fill="#0A0B09"></path>
                <path d="M187.962057,37.6381318 L191.544495,37.6381318 L191.544495,20.9735404 L187.962057,20.9735404 L187.962057,37.6381318 Z M187.557478,17.0086902 C187.557478,15.8029412 188.541589,14.8266647 189.75396,14.8266647 C190.96633,14.8266647 191.949075,15.8029412 191.949075,17.0086902 C191.949075,18.2130813 190.96633,19.1893578 189.75396,19.1893578 C188.541589,19.1893578 187.557478,18.2130813 187.557478,17.0086902 L187.557478,17.0086902 Z" id="Fill-5" fill="#0A0B09"></path>
                <path d="M161.418389,34.1716035 C160.585994,34.7378167 159.698927,35.0202444 158.759921,35.0202444 C157.555752,35.0202444 156.574374,34.5463633 155.821256,33.6013168 C155.065403,32.6535547 154.688161,31.290298 154.688161,29.508831 C154.688161,27.7232906 155.065403,26.3641073 155.821256,25.4299234 C156.574374,24.4930239 157.611791,24.0272898 158.92394,24.0272898 C160.739078,24.0272898 162.227547,24.9533267 163.386611,26.8013271 L163.386611,32.0194502 C162.90549,32.8898163 162.249416,33.6053903 161.418389,34.1716035 Z M166.902075,34.2381369 L166.900709,25.106761 L166.900709,21.1432686 L163.386611,21.1432686 L163.386611,23.846699 C162.204311,21.9986986 160.389172,21.0264956 158.069676,21.0264956 C156.011244,21.0264956 154.340988,21.7597213 153.06301,23.2261728 C151.780932,24.6966977 151.142626,26.7904645 151.142626,29.508831 C151.142626,32.246207 151.768631,34.3454052 153.02884,35.800994 C154.289049,37.2606563 155.956571,37.9870929 158.036873,37.9870929 C159.217806,37.9870929 160.281193,37.7046652 161.220199,37.138452 C162.163306,36.5749545 162.883621,35.8675275 163.386611,35.0202444 C163.386611,35.0202444 163.386611,35.5144928 163.386611,35.5158507 C163.386611,36.0752747 163.502791,36.6713601 163.901903,37.092286 C164.377557,37.5946814 165.093771,37.6965183 165.753946,37.6951605 C165.853723,37.6951605 166.902075,37.6965183 166.902075,37.6965183 C166.902075,37.6965183 166.902075,34.2394948 166.902075,34.2381369 L166.902075,34.2381369 Z" id="Fill-6" fill="#0A0B09"></path>
                <path d="M244.749379,34.1525939 C243.918352,34.720165 243.029918,35.0012348 242.090912,35.0012348 C240.886742,35.0012348 239.905365,34.5273538 239.152246,33.5823073 C238.396394,32.6345451 238.019151,31.2712884 238.019151,29.4898214 C238.019151,27.704281 238.396394,26.3450978 239.152246,25.4122717 C239.905365,24.4753722 240.942782,24.0082802 242.25493,24.0082802 C244.070069,24.0082802 245.558537,24.9343172 246.717602,26.7823176 L246.717602,32.0004406 C246.23648,32.8708067 245.580406,33.5863807 244.749379,34.1525939 Z M250.233066,34.2191274 L250.233066,21.124259 L246.717602,21.124259 L246.717602,23.8276894 C245.535301,21.979689 243.720163,21.007486 241.400667,21.007486 C239.342234,21.007486 237.673345,21.7407118 236.394001,23.208521 C235.111922,24.679046 234.473617,26.7714549 234.473617,29.4898214 C234.473617,32.2271975 235.099621,34.3263956 236.35983,35.7819844 C237.620039,37.2416468 239.287561,37.9680834 241.367863,37.9680834 C242.548797,37.9680834 243.612184,37.6856557 244.55119,37.1194425 C245.494297,36.5559449 246.214611,35.8498757 246.717602,35.0012348 L246.717602,35.4968411 C246.717602,36.0562652 246.833781,36.6537084 247.232893,37.0732764 C247.709914,37.5756718 248.424761,37.6775087 249.086303,37.6775087 C249.184714,37.6775087 250.233066,37.6775087 250.233066,37.6775087 C250.233066,37.6775087 250.233066,34.2204852 250.233066,34.2191274 L250.233066,34.2191274 Z" id="Fill-7" fill="#0A0B09"></path>
                <path d="M283.519263,33.7696872 C284.284683,33.2007583 284.670127,32.3100248 284.670127,31.0906976 C284.670127,29.8768017 284.242312,28.9887839 283.386682,28.4361489 C282.535152,27.8794405 281.221637,27.6010863 279.450237,27.6010863 L273.634412,27.6010863 L273.634412,34.6156124 L279.972362,34.6156124 C281.570176,34.6156124 282.75521,34.3331847 283.519263,33.7696872 Z M283.617675,21.2070864 C283.617675,19.2097252 282.33833,18.2090078 279.77554,18.2090078 L273.634412,18.2090078 L273.634412,24.3735353 L279.647059,24.3735353 C280.868997,24.3735353 281.838073,24.0843184 282.550187,23.5086005 C283.262301,22.9328825 283.617675,22.1657111 283.617675,21.2070864 Z M269.957663,37.8458791 L269.957663,14.9787412 L279.74547,14.9787412 C282.28229,14.9787412 284.182172,15.5055774 285.439647,16.5619656 C286.699856,17.6156381 287.328594,19.0780161 287.328594,20.9477417 C287.328594,22.1209029 287.02926,23.1175467 286.427859,23.9335998 C285.825091,24.7496529 285.041902,25.3063613 284.07966,25.611872 C285.523023,25.9160249 286.601445,26.5596342 287.313559,27.5372685 C288.025673,28.5149028 288.381047,29.711147 288.381047,31.1246433 C288.381047,33.2795122 287.683968,34.9347014 286.295277,36.1010734 C284.90522,37.263372 282.796215,37.8458791 279.972362,37.8458791 L269.957663,37.8458791 L269.957663,37.8458791 Z" id="Fill-8" fill="#0A0B09"></path>
                <path d="M325.286587,22.9030103 C324.310676,21.7828043 322.89875,21.2206646 321.056275,21.2206646 C319.781031,21.2206646 318.606931,21.5071658 317.53261,22.0842416 C316.469223,22.6572439 315.595824,23.3388723 314.897379,24.1304845 L314.897379,21.2749776 L311.339543,21.2749776 L311.339543,37.8716778 L314.897379,37.8716778 L314.897379,26.9764866 C316.454188,25.1665053 318.190051,24.2608357 320.0995,24.2608357 C322.142898,24.2608357 323.163913,25.5589168 323.163913,28.1537212 L323.163913,35.6462019 C323.163913,37.1316629 323.943002,37.8716778 325.499811,37.8716778 L326.753186,37.8716778 L326.753186,27.829201 C326.753186,25.6675429 326.262497,24.0272898 325.286587,22.9030103" id="Fill-9" fill="#0A0B09"></path>
                <path d="M301.741724,34.346763 C300.910697,34.9129762 300.022263,35.194046 299.083257,35.194046 C297.879087,35.194046 296.89771,34.720165 296.144591,33.7764763 C295.388739,32.8273563 295.011496,31.4640996 295.011496,29.6826327 C295.011496,27.89845 295.388739,26.5392668 296.144591,25.6050829 C296.89771,24.6681834 297.935127,24.2010914 299.247275,24.2010914 C301.062414,24.2010914 302.550882,25.1271284 303.709947,26.9751288 L303.709947,32.1946097 C303.228826,33.0649758 302.572751,33.779192 301.741724,34.346763 Z M307.225411,34.4132964 L307.225411,21.3170702 L303.709947,21.3170702 L303.709947,24.0205006 C302.527646,22.1725002 300.712508,21.2016551 298.393012,21.2016551 C296.334579,21.2016551 294.665691,21.9348808 293.386346,23.4013323 C292.104268,24.8718572 291.465962,26.9642662 291.465962,29.6826327 C291.465962,32.4200087 292.091966,34.5205646 293.352175,35.9761535 C294.612385,37.4358158 296.279906,38.1608946 298.360208,38.1608946 C299.541142,38.1608946 300.604529,37.8798247 301.543535,37.3136115 C302.486642,36.750114 303.206957,36.0426869 303.709947,35.194046 L303.709947,35.6896523 C303.709947,36.2504342 303.826127,36.8465196 304.225238,37.2674455 C304.702259,37.7698409 305.417106,37.8716778 306.078648,37.8703199 C306.177059,37.8703199 307.225411,37.8703199 307.225411,37.8703199 C307.225411,37.8703199 307.225411,34.4146542 307.225411,34.4132964 L307.225411,34.4132964 Z" id="Fill-10" fill="#0A0B09"></path>
                <path d="M346.453181,34.6468424 C345.963859,34.3168908 345.372025,34.2978813 344.803427,34.3644147 C344.722785,34.3739195 344.642142,34.3834243 344.562867,34.3902134 C343.421571,34.2408526 341.360405,31.4478057 341.360405,31.4478057 L338.75661,28.0355904 L338.967101,27.8387057 L345.835377,21.3143546 L341.428746,21.3143546 L334.415586,28.1537212 C334.415586,28.1537212 334.415586,23.1745754 334.414219,23.1637128 L334.414219,16.356934 L330.865951,16.356934 L330.865951,37.8988343 C330.865951,37.8988343 334.414219,37.8988343 334.415586,37.8879717 L334.415586,32.1077089 C334.415586,32.1077089 336.598399,30.0641816 336.627103,30.0370251 L339.158456,33.4560295 C339.310173,33.6678503 339.464624,33.8769554 339.623175,34.0833448 L339.93071,34.5001973 C340.053723,34.665852 340.184938,34.8247175 340.32162,34.9781518 C340.478805,35.1750365 340.635989,35.3705633 340.794541,35.5660902 C342.012378,37.0719186 344.47539,39.1466758 346.492818,37.6842979 C347.031346,37.294602 347.277374,36.6985166 347.255505,36.1146517 C347.235002,35.5321446 346.942503,34.9754361 346.453181,34.6468424" id="Fill-11" fill="#0A0B09"></path>
                <path d="M76.9023638,37.8377321 L80.4834354,37.8377321 L80.4834354,21.1391951 L76.9023638,21.1391951 L76.9023638,37.8377321 Z M76.4964179,17.2069327 C76.4964179,16.0025415 77.4805292,15.026265 78.6928996,15.026265 C79.9052701,15.026265 80.8880145,16.0025415 80.8880145,17.2069327 C80.8880145,18.4126817 79.9052701,19.3889581 78.6928996,19.3889581 C77.4805292,19.3889581 76.4964179,18.4126817 76.4964179,17.2069327 L76.4964179,17.2069327 Z" id="Fill-12" fill="#0A0B09"></path>
                <path d="M113.160031,21.1391951 L108.227173,33.5076269 L103.264245,21.1391951 L99.4863511,21.1391951 L100.214867,22.8446238 L105.976018,36.1621756 C105.976018,36.1621756 106.532315,37.4616145 106.537782,37.5349371 C106.586987,38.2342172 106.398366,39.0434811 105.956883,39.8038633 C105.590575,40.4325365 105.049314,41.0204749 104.442445,41.4291804 C104.020097,41.7129659 103.499338,41.6640842 103.019584,41.7374067 C102.532996,41.8107293 102.043674,42.0116875 101.696501,42.3647221 C101.230415,42.8358875 101.032226,43.5188737 101.140205,44.1679143 C101.248184,44.8183126 101.65413,45.4252606 102.338907,45.7362026 C104.978239,46.9378781 107.137816,44.1040965 108.169766,42.1189557 C108.717862,41.0639253 109.263223,40.0116106 109.727943,38.9158455 L116.966628,21.1391951 L113.160031,21.1391951 L220.557398,70.5792876" id="Fill-13" fill="#0A0B09"></path>
                <path d="M71.5963638,33.2754387 C69.7579892,34.3684882 67.7460283,34.9156918 65.5577475,34.9156918 C63.0550978,34.9156918 61.1593168,34.1593831 59.8758716,32.6481234 C58.5896928,31.1395793 57.94592,29.0023621 57.94592,26.2391874 C57.94592,23.6728973 58.5855924,21.6497375 59.8567361,20.1724234 C61.1319804,18.6937515 62.9648876,17.9523788 65.355458,17.9523788 C67.3455497,17.9523788 69.1511206,18.3692312 70.776271,19.2015782 L71.7221113,19.6496606 C72.099354,19.06308 72.2100665,18.4819307 72.2893421,17.9225067 C72.4232906,16.9747445 71.9148331,16.2564549 71.1699155,15.8654012 C69.5939706,15.0832937 67.6640191,14.69224 65.3868949,14.69224 C61.7552508,14.69224 58.9601014,15.7255451 56.9987129,17.7907976 C55.0373244,19.8560501 54.0586804,22.6735378 54.0586804,26.2391874 C54.0586804,29.9813542 55.0373244,32.8993211 56.9987129,34.9985192 C58.9601014,37.0963595 61.8263255,38.1459585 65.5891844,38.1459585 C67.6202808,38.1459585 69.3178727,37.8716778 70.6819603,37.3299054 C72.0433143,36.7881331 72.7253581,35.9843004 72.7253581,34.9156918 C72.7253581,34.2938078 72.5381036,33.6352625 72.1635946,32.9482028 L71.5963638,33.2754387" id="Fill-14" fill="#0A0B09"></path>
                <path d="M96.0269266,34.5287116 C95.603212,34.2014757 95.0359812,34.0629775 94.5070214,34.1498783 C93.8536808,34.2571465 93.2372444,34.8613788 92.5401656,34.5327851 C91.4221058,34.004591 91.0352954,32.7173725 91.0352954,31.5767991 L91.0352954,24.0395102 L96.7130708,24.0395102 L96.7048699,21.1663516 L91.0352954,21.1663516 L91.0339286,16.4954322 L87.5047961,16.4954322 L87.5047961,21.1663516 L83.9729301,21.1663516 L83.9729301,24.0395102 L87.5047961,24.0395102 L87.5088966,25.6770477 C87.5088966,25.6770477 87.5088966,31.561863 87.5088966,31.5632209 C87.5088966,34.0073066 88.4233,36.4595393 90.7113588,37.6381318 C91.5314515,38.0604155 92.4704577,38.2790254 93.393062,38.2912458 C94.1776174,38.3021084 95.0332475,38.1758307 95.709824,37.7562626 C96.0898003,37.5213588 96.413737,37.1832603 96.5927906,36.7745548 C96.8934912,36.088853 96.7363068,35.2279917 96.2100806,34.6902928 C96.1526741,34.6332641 96.0911672,34.5789511 96.0269266,34.5287116" id="Fill-15" fill="#0A0B09"></path>
                <path d="M182.727132,34.5287116 C182.303417,34.2014757 181.736186,34.0629775 181.20586,34.1498783 C180.552519,34.2571465 179.937449,34.8613788 179.239004,34.5327851 C178.122311,34.004591 177.7355,32.7173725 177.7355,31.5767991 L177.7355,24.0395102 L183.411909,24.0395102 L183.405075,21.1663516 L177.7355,21.1663516 L177.734134,16.4954322 L174.205001,16.4954322 L174.205001,21.1663516 L170.673135,21.1663516 L170.673135,24.0395102 L174.205001,24.0395102 L174.207735,25.6770477 C174.207735,25.6770477 174.207735,31.561863 174.207735,31.5632209 C174.207735,34.0073066 175.123505,36.4595393 177.411564,37.6381318 C178.231657,38.0604155 179.170663,38.2790254 180.093267,38.2912458 C180.877823,38.3021084 181.733453,38.1758307 182.408662,37.7562626 C182.790005,37.5213588 183.112575,37.1832603 183.292996,36.7745548 C183.593696,36.088853 183.435145,35.2279917 182.908919,34.6902928 C182.852879,34.6332641 182.791372,34.5789511 182.727132,34.5287116" id="Fill-16" fill="#0A0B09"></path>
                <path d="M0.0091013786,45.779653 C0.107512508,48.3160709 2.00739403,50.4437834 4.52781239,50.8402684 C4.87225134,50.8945814 5.22625804,50.9149488 5.5775311,50.9013705 C7.00995976,50.8470575 8.33577636,50.2414674 9.30895308,49.1972996 C10.2834966,48.1531319 10.7892205,46.7925908 10.7345476,45.3885993 C10.7359145,41.5513847 12.9446976,38.943002 15.9954426,35.9978787 C19.1801361,33.6746394 23.6933798,30.8367843 30.0873696,27.3023647 C38.0245005,23.108042 43.181517,18.153337 44.3241796,14.124669 L44.3583501,13.9983912 C44.5018663,13.478344 44.5565392,12.9582969 44.5251023,12.4654062 C44.4266912,9.92898836 42.5268097,7.80127592 40.0050245,7.40614873 C39.6605855,7.35047788 39.3079456,7.3301105 38.9566726,7.34368876 C37.5242439,7.39800177 36.1984273,8.00359191 35.2252506,9.04775966 C34.2507071,10.0932852 33.7449832,11.4524685 33.799656,12.8578178 C33.7969224,16.9000641 31.3448451,19.5804115 28.0371377,22.726493 C20.9706719,28.2134655 14.4468341,30.9426946 14.4468341,30.9426946 C6.50970319,35.1370174 1.35131983,40.0917223 0.2100241,44.1203904 L0.174486748,44.2466681 C0.0323373397,44.7667153 -0.0237023311,45.2854046 0.0091013786,45.779653" id="Fill-17" fill="#DB363E"></path>
                <path d="M31.9831506,29.6079523 C31.9831506,29.6079523 37.7484026,31.1273589 35.948299,39.1738324 L35.9510327,39.1738324 C35.8512547,39.5988317 35.8157174,40.0441984 35.8539884,40.5017856 C36.0549111,42.8766223 38.158449,44.6404375 40.5476525,44.4394793 C42.9382228,44.2385212 44.7123568,42.1515435 44.5100673,39.7767068 C44.1150559,34.1770348 33.4975886,27.3240899 32.0555921,27.5060385 C32.0555921,27.5060385 31.2327658,27.5359107 31.2054293,28.5977301 C31.1862938,29.4382241 31.9831506,29.6079523 31.9831506,29.6079523" id="Fill-18" fill="#008D45"></path>
                <path d="M30.2021825,32.246207 C30.2021825,32.246207 33.9718755,33.2401353 32.7936756,38.5017088 L32.7964093,38.5017088 C32.7964093,38.5017088 31.5512351,43.4591294 23.5772,44.7626418 C14.5384112,46.2413137 14.6819274,42.9553762 14.6819274,42.9553762 C14.6094859,41.3205543 13.9834817,39.3435605 22.9552963,33.9434888 C22.9552963,33.9434888 27.4849419,31.2061128 30.2021825,32.246207" id="Fill-19" fill="#FAD51F"></path>
                <path d="M8.41505199,7.89903935 C8.92350949,15.0683576 19.249844,23.6294469 25.4251423,26.957477 C27.1049656,27.8617888 29.189368,27.6676197 29.7825684,27.4381472 C32.6064211,26.1604335 29.572078,25.0728153 29.572078,25.0728153 C29.572078,25.0728153 19.8348435,22.5065253 22.8773875,8.91740842 L22.8732871,8.91740842 C23.0386724,8.2004766 23.1001794,7.44688349 23.034572,6.67563865 C22.6956003,2.66462235 19.1445987,-0.313088799 15.1083756,0.0263675559 C11.0721525,0.364466086 8.07334668,3.88802306 8.41505199,7.89903935" id="Fill-20" fill="#1D63A0"></path>
                <path d="M33.5057895,46.449061 C33.6957776,46.449061 33.7682192,46.4137575 33.8201584,46.3512975 C33.861163,46.3051315 33.8871326,46.238598 33.8871326,46.1720646 C33.8871326,46.1055311 33.861163,46.0389977 33.8201584,45.9928316 C33.7682192,45.9303717 33.6957776,45.8950682 33.5057895,45.8950682 L33.0820749,45.8950682 L33.0820749,46.449061 L33.5057895,46.449061 Z M34.0060461,47.6330847 L33.3404041,46.6703865 L33.0820749,46.6703865 L33.0820749,47.6330847 L32.8401475,47.6330847 L32.8401475,45.6696692 L33.5194577,45.6696692 C33.7627519,45.6696692 33.8871326,45.72534 33.9800764,45.8176721 C34.0730203,45.9100043 34.12906,46.0335664 34.12906,46.1720646 C34.12906,46.3105628 34.0730203,46.4395562 33.9800764,46.5318883 C33.8967004,46.6133578 33.799656,46.6540926 33.6233361,46.6703865 L34.2794103,47.6330847 L34.0060461,47.6330847 Z M33.4839203,48.2183075 C34.3409173,48.2183075 35.0475638,47.5163117 35.0475638,46.6635974 C35.0475638,45.8135987 34.3409173,45.1102451 33.4839203,45.1102451 C32.6282902,45.1102451 31.9202768,45.8135987 31.9202768,46.6635974 C31.9202768,47.5163117 32.6282902,48.2183075 33.4839203,48.2183075 Z M33.4839203,44.86991 C34.480333,44.86991 35.290858,45.6751005 35.290858,46.6635974 C35.290858,47.6548099 34.480333,48.4586426 33.4839203,48.4586426 C32.4888745,48.4586426 31.6769827,47.6548099 31.6769827,46.6635974 C31.6769827,45.6751005 32.4888745,44.86991 33.4839203,44.86991 L33.4839203,44.86991 Z" id="Fill-21" fill="#0A0B09"></path>
            </g>
        </g>
    </g>
</svg>