<?xml version="1.0" encoding="UTF-8"?> <svg xmlns="http://www.w3.org/2000/svg" width="631" height="135" viewBox="0 0 631 135" fill="none"><g clip-path="url(#clip0_443_2729)"><path d="M266.849 117.594C266.763 117.594 266.216 117.614 266.033 117.614C260.63 117.614 259.219 114.261 259.085 109.929C259.046 108.785 259.037 107.632 259.027 106.488C259.017 104.879 259.008 103.271 259.017 101.662C259.017 99.7236 259.027 97.7756 259.037 95.8373C259.046 93.6956 259.065 91.5538 259.085 89.4023C259.104 87.183 259.123 84.9637 259.152 82.7541C259.171 80.5929 259.2 78.4317 259.228 76.2706C259.248 74.2935 259.276 72.3165 259.305 70.3395C259.324 68.6823 259.353 67.0154 259.372 65.3582C259.392 64.137 259.411 62.9256 259.42 61.7045C259.459 58.8165 259.411 55.9576 258.912 53.1083C258.48 50.637 257.77 48.2142 256.762 45.9174C255.783 43.6884 254.526 41.595 253.028 39.6955C251.483 37.7379 249.698 35.9935 247.74 34.4719C245.628 32.8244 243.334 31.4385 240.935 30.2659C240.849 30.2271 240.762 30.1787 240.666 30.1399C232.854 26.3991 224.916 24.8872 216.921 24.8872C209.569 24.8872 203.667 24.8872 194.789 28.1338C190.028 29.8782 185.248 32.3786 182.071 36.4683C179.058 40.3449 176.629 45.0548 176.111 50.0071C175.727 53.6898 176.342 57.5373 178.443 60.6288C180.584 63.7785 183.991 65.6973 187.609 66.618C192.485 67.8488 195.96 66.5405 197.61 62.9741C199.012 59.9601 198.493 56.7426 198.455 53.5444C198.426 51.1313 198.973 48.7085 200.039 46.5473C201.152 44.2892 202.832 43.0294 205.058 41.9439C207.966 40.529 211.21 39.8797 214.416 39.5986C216.317 39.4339 218.265 39.3563 220.165 39.5308C220.204 39.5308 220.252 39.5308 220.29 39.5405C230.953 40.8294 235.896 51.8872 229.686 60.8032C227.009 64.641 223.352 67.3739 219.177 69.225C213.495 71.7447 207.659 73.9253 201.862 76.193C194.664 79.0132 187.273 81.407 181.064 86.3011C164.239 99.5394 167.521 123.777 187.245 131.831C191.976 133.759 197.006 134.7 202.035 134.7C212.708 134.7 223.371 130.678 231.126 122.721C232.47 121.345 233.382 120.521 234.13 120.521C234.936 120.521 235.138 121.665 236.309 123.719C242.451 134.506 252.299 134.777 253.047 134.777C259.699 134.777 265.563 132.354 269.786 126.694C272.992 122.411 271.418 117.594 266.878 117.594H266.849ZM229.13 106.188C225.003 113.301 219.772 118.03 211.402 118.195C211.287 118.195 211.172 118.195 211.057 118.195C201.181 118.195 196.19 110.064 198.944 100.392C202.592 87.561 227.45 79.0617 230.915 79.0617C232.23 79.0423 232.498 80.089 232.681 82.6959C232.988 87.1927 232.767 99.9271 229.139 106.188H229.13Z" fill="#F7F6F5"></path><path d="M530.338 35.4606C520.904 28.0661 510.337 25.0037 499.836 25.0037C491.314 25.0037 482.647 27.252 474.076 31.6519C454.189 41.8278 445.542 59.3788 445.234 81.3684C445.398 94.597 448.44 105.645 454.871 114.086C465.86 128.507 479.883 134.642 495.786 134.642C500.518 134.642 505.422 134.099 510.452 133.072C530.53 128.962 547.125 111.295 549.88 90.1099C552.461 70.2621 548.315 49.5711 530.329 35.48L530.338 35.4606ZM523.725 87.6677C523.61 94.7715 522.372 101.575 519.176 107.961C514.924 116.47 507.63 120.88 500.201 120.88C493.934 120.88 487.57 117.74 482.839 111.276C474.661 100.092 472.713 87.0378 472.559 73.5765C472.521 66.5213 473.116 59.5726 476.139 53.0503C479.719 45.336 485.286 40.0446 494.02 39.1239C494.884 39.0367 495.729 38.9882 496.554 38.9882C504.299 38.9882 510.241 42.9423 514.54 49.6293C521.988 61.2007 523.927 74.1774 523.725 87.658V87.6677Z" fill="#F7F6F5"></path><path d="M360.965 106.73C360.006 105.897 359.046 105.567 358.076 105.567C356.589 105.567 355.101 106.352 353.681 107.254C350.964 108.979 348.344 110.878 345.513 112.371C340.608 114.949 335.627 116.199 330.828 116.199C320.693 116.199 311.421 110.655 305.672 100.412C301.161 92.3775 299.971 83.5972 299.827 74.5552C299.626 64.8154 301.391 57.1108 305.317 50.4335C309.914 42.6223 316.719 38.6876 323.563 38.6876C326.307 38.6876 329.062 39.3273 331.673 40.5968C333.381 41.4787 338.66 44.9289 341.376 54.814C341.587 55.599 342.499 57.6245 344.351 59.146C346.693 61.0552 350.446 62.2472 355.178 60.2799C365.073 56.1708 363.605 44.2698 358.393 36.4199C356.589 33.6966 353.268 31.3126 350.955 29.8782C349.256 28.7347 347.365 27.814 345.292 27.184C340.157 25.6334 334.907 24.8872 329.705 24.8872C313.062 24.8872 296.852 32.5433 286.361 46.1596C271.677 65.2128 269.114 93.6471 280.343 112.758C288.559 126.733 303.945 134.777 320.693 134.777C325.511 134.777 330.444 134.108 335.349 132.732C346.069 129.708 355.149 124.291 361.128 114.522C362.645 112.041 363.691 109.114 360.956 106.74L360.965 106.73Z" fill="#F7F6F5"></path><path d="M615.491 27.6008C613.427 27.6008 611.239 27.9594 608.983 28.725C600.777 31.5064 594.884 37.2533 590.047 44.3377C589.481 45.1614 588.914 46.1403 588.214 46.1015C587.004 46.0434 587.244 44.6187 587.311 43.7368C587.542 40.7034 587.609 37.6119 587.331 34.5882C586.908 30.0139 585.037 27.562 581.735 27.562C574.834 27.562 569.786 29.9945 554.381 31.8456C551.924 32.146 549.544 34.8499 549.544 37.893C549.544 42.6611 553.489 43.9985 555.917 44.8126C563.202 47.2354 563.47 50.5886 563.451 57.7214C563.413 73.0337 563.451 90.9529 563.394 105.984C563.365 113.795 561.388 120.618 554.055 124.853C551.742 126.191 549.611 128.042 550.753 131.288C551.828 134.331 554.391 134.806 557.165 134.806H557.193C559.535 134.806 585.046 134.806 586.63 134.806C589.289 134.806 594.846 134.826 594.961 134.826C597.984 134.826 601.008 134.583 602.035 131.075C603.052 127.596 600.249 125.871 597.907 124.359C592.523 120.889 590.172 116.005 589.567 109.667C588.511 98.6188 588.818 87.6288 590.229 76.6776C591.199 69.1087 592.792 61.6367 598.167 55.7056C601.142 52.4202 603.82 50.8599 606.968 50.8599C608.849 50.8599 610.893 51.4123 613.264 52.4881C614.646 53.1083 615.942 53.903 617.343 54.4651C619.147 55.192 620.808 55.5505 622.296 55.5408C626.471 55.5408 629.302 52.7401 630.329 47.4098C632.517 36.0613 625.482 27.6008 615.462 27.6008H615.491Z" fill="#F7F6F5"></path><path d="M154.084 27.6008C152.02 27.6008 149.832 27.9594 147.577 28.725C139.37 31.5064 133.477 37.2533 128.64 44.3377C128.074 45.1614 127.508 46.1403 126.807 46.1015C125.598 46.0434 125.838 44.6187 125.905 43.7368C126.135 40.7034 126.202 37.6119 125.924 34.5882C125.502 30.0139 123.63 27.562 120.328 27.562C113.428 27.562 108.379 29.9945 92.9745 31.8456C90.5175 32.146 88.1372 34.8499 88.1372 37.893C88.1372 42.6611 92.0819 43.9985 94.5102 44.8126C101.795 47.2354 102.064 50.5886 102.044 57.7214C102.006 73.0337 102.044 90.9529 101.987 105.984C101.958 113.795 101.075 120.618 93.7519 124.853C91.4389 126.191 89.3081 128.042 90.4503 131.288C91.5252 134.331 94.0879 134.806 96.8616 134.806H96.8904C99.2323 134.806 125.338 134.806 126.922 134.806C129.581 134.806 135.138 134.826 135.253 134.826C138.276 134.826 141.3 134.583 142.327 131.075C143.344 127.596 140.541 125.871 138.2 124.359C132.815 120.889 128.765 116.005 128.16 109.667C127.104 98.6188 126.327 87.6288 127.738 76.6776C128.707 69.1087 131.395 61.6367 136.76 55.7056C139.735 52.4202 142.413 50.8599 145.561 50.8599C147.442 50.8599 149.487 51.4123 151.857 52.4881C153.239 53.1083 154.535 53.903 155.936 54.4651C157.741 55.192 159.401 55.5505 160.889 55.5408C165.064 55.5408 167.895 52.7401 168.922 47.4098C171.111 36.0613 164.075 27.6008 154.055 27.6008H154.084Z" fill="#F7F6F5"></path><path d="M75.9863 108.756C73.7788 108.756 71.5809 110.752 69.5461 111.983C68.2216 112.788 66.9259 113.66 65.5151 114.27C63.3555 115.201 61.2152 115.646 59.1709 115.646C53.6713 115.646 48.882 112.41 46.329 106.595C44.9757 103.513 44.4958 100.247 44.1023 96.9616C42.1347 80.8449 42.8929 66.3855 42.9505 49.6195C42.9601 45.8108 44.4478 44.299 47.8454 44.299C48.0854 44.299 68.1928 44.6479 68.7399 44.6479C75.5448 44.6479 78.261 41.8955 77.9634 32.6791C77.8291 28.444 75.612 26.5736 72.9246 26.6123C64.085 26.7383 51.8957 27.8625 48.0086 27.8625C44.7933 27.8625 43.5552 26.1471 43.6512 22.7067C43.7855 17.8417 43.7472 14.1008 43.6128 8.64462C43.5264 5.2139 44.5246 0.658978 39.0442 0.329473C36.5296 0.174412 34.5044 0.155029 32.844 0.155029C27.402 0.155029 26.0487 1.74441 25.2521 6.93895C22.9774 21.7182 20.2804 26.4185 5.10625 28.2599C3.1291 28.5021 1.45907 29.2871 0.816018 31.5743C-1.47787 39.6665 1.06556 43.3492 9.30051 43.3686C9.91477 43.3686 13.2836 43.2329 13.7635 43.2329C17.5067 43.2329 18.4952 45.6461 18.2169 49.7746C17.5067 60.2703 16.7292 70.6303 16.5853 81.1454C16.4509 91.205 15.8942 99.084 17.2091 108C18.5624 117.207 22.0656 125.231 30.339 130.309C35.5026 133.478 41.5588 134.981 47.6823 134.981C59.0653 134.981 70.6595 129.796 77.138 120.511C79.3455 117.342 82.2633 113.553 78.8368 110.074C77.8963 109.115 76.9461 108.746 75.9959 108.746L75.9863 108.756Z" fill="#F7F6F5"></path><path d="M440.647 108.601C438.439 108.601 436.241 110.597 434.207 111.828C432.882 112.632 431.586 113.505 430.176 114.115C428.016 115.046 425.876 115.491 423.831 115.491C418.332 115.491 413.542 112.255 410.989 106.44C409.636 103.358 409.156 100.092 408.763 96.8066C406.795 80.6899 407.553 65.4649 407.611 48.6989C407.621 44.8902 409.108 43.3783 412.506 43.3783C412.746 43.3783 433.717 43.7272 434.264 43.7272C441.069 43.7272 443.785 41.7405 443.488 32.5241C443.353 28.289 441.136 26.4185 438.449 26.4573C429.609 26.5833 416.556 27.7075 412.669 27.7075C409.454 27.7075 408.216 25.9921 408.312 22.5517C408.446 17.6867 408.408 13.9458 408.273 8.48959C408.187 5.05887 409.185 0.503949 403.705 0.174444C401.19 0.0193826 399.155 0 397.495 0C392.053 0 390.7 1.58938 389.903 6.78392C387.628 21.5632 384.931 26.2635 369.757 28.1048C367.78 28.3471 366.11 29.1321 365.467 31.4193C363.173 39.5115 365.716 43.1942 373.951 43.2136C374.566 43.2136 377.934 43.0779 378.414 43.0779C382.158 43.0779 383.146 45.491 382.868 49.6195C382.158 60.1152 381.38 70.4753 381.236 80.9903C381.102 91.0499 380.545 98.929 381.86 107.845C383.213 117.052 386.717 125.076 394.99 130.154C400.153 133.323 406.21 134.826 412.333 134.826C423.716 134.826 435.31 129.641 441.789 120.356C443.996 117.187 446.914 113.398 443.488 109.919C442.547 108.959 441.597 108.591 440.647 108.591V108.601Z" fill="#F7F6F5"></path></g><defs><clipPath id="clip0_443_2729"><rect width="630.751" height="134.981" fill="white"></rect></clipPath></defs></svg>
