<svg id="Layer_1" xmlns="http://www.w3.org/2000/svg" viewBox="0 0 1483.9 371.5"><style>.st0{fill:#fff}.st1{fill:#eeb111}</style><title>wvu-logo--1.0.0</title><path class="st0" d="M296.1 134.8c4.3 10.7 5.4 15.2 7.7 15.2 1.7 0 2.8-.8 3.9-3.9l17.3-43c.5-1.1 1.1-1.1 1.4-1.1.5 0 .8.6 1.1 1.4l17 40.6c2.2 4.9 2.8 5.9 4.2 5.9 2.3 0 3.5-2.9 4.5-5.1l39.7-93.7c5.1-12.2 9-8 9-11.4 0-1.7-.8-1.7-1.9-1.7-3.6 0-8.2.6-12.8.6-3.7 0-7.3-.6-10.8-.6-1.1 0-1.7 1.1-1.7 2.3 0 3.1 10 2 10 8.7 0 1.8-.3 3.5-1.1 5.1l-28.1 69.3c-1.4 3.4-2.3 5.7-3.4 5.7s-1.9-1.2-3.4-4.8l-13-32c-.9-2.3-2-5.9-2-7.4 0-2 .5-4 1.4-5.9l11-25.3c7-16.2 10.7-10.4 10.7-14.7 0-.5-.6-.9-1.1-.9-2.6 0-4.5.6-11.3.6-3.4 0-6.6-.6-10.1-.6-.9 0-3.1 0-3.1 1.4 0 3.4 9.1 2.5 9 9.1-.2 1.9-.6 3.8-1.4 5.6l-7.6 18.1c-.9 2.2-1.7 3.9-2.2 3.9-.3 0-.8-1.1-2-4l-8-20.6c-.7-1.4-1.1-3-1.1-4.6 0-5.1 6.3-4.6 6.3-7.1 0-.9-.3-1.8-.9-1.8-3.4 0-7.6.6-15 .6-2.2 0-10.4-.6-15.6-.6-1.4 0-2.3.1-2.3 1.7 0 5.3 10.8-.3 15 9.9l15.5 37.2c.7 1.5 1.2 3.1 1.5 4.8-.3 2.2-.9 4.3-1.8 6.3l-11.4 27.2c-.6 1.7-1.4 2.8-2.2 2.8-.9 0-2-2.3-2.6-4L275 51.3c-.6-1.2-.9-2.5-.9-3.9 0-5.3 6.6-5.3 6.6-7.6 0-1.1-.3-1.8-1.2-1.8-3.7 0-7.4.6-11.1.6-4.5 0-9.1-.6-13.6-.6-1.5 0-3.6.6-3.6 2.5 0 3.1 7.4 1.1 11.1 10.2l33.8 84.1zm91.2-31.2c0-8.5 6.8-19.5 16.4-19.5 8.5 0 17.1 7.7 17.1 16.4 0 2.3-.9 3.1-3.1 3.1h-30.4zm41.1 4.1c3.5 0 5.2.1 5.2-2.6 0-6.2-8.3-24.6-27.4-24.6-19.3 0-30.3 16.5-30.3 36.3 0 10.2 8 31.7 31.2 31.7 13.9 0 27.4-11.1 27.4-14.7 0-.5 0-1.1-.6-1.1-3.4 0-8.5 8-21.8 8-9.4 0-24.9-7.6-24.9-33.1l41.2.1zm31.4 10.6c6.2 2.9 14.1 5.4 14.1 13.6 0 8-6.2 12.7-13.8 12.7-16.7 0-15-20.4-18.4-20.4-2.3 0-1.9 4.9-1.9 7.6 0 12.2 0 12.4 3.4 12.4 3.7 0 6.5 4.5 17.3 4.5 11.6-.2 20.9-9.6 20.9-21.2 0-9.9-4-14.7-12.8-18.4-16.2-6.5-20.2-9.7-20.2-14.8 0-6.3 4.8-9.9 10.8-9.9 14.1 0 15.5 13.4 17 13.4 2.3 0 1.7-1.9 1.7-6 0-1.1.2-6.3-.8-7.6-1.9-2.3-12.5-3.5-15.1-3.5-11.3 0-20.9 6.2-20.9 18.5-.1 10.9 10.3 14.9 18.7 19.1zm32.1 12.3c0 15.9 10.2 17.9 17.3 17.9 10.8 0 19.2-5.2 19.2-7.6 0-1.2-.6-1.4-1.2-1.4-2.6 0-4.9 3.5-13.1 3.5-6.2 0-10.5-2.9-10.8-9.3v-45h20.1l2.1-5.6c.5-.8-1.3-.7-5.2-.7h-17c0-11.1.1-14.4-2-14.4-1.2 0-2.5-.9-3.1 3.9-1.3 10.3-9.6 14.3-9.7 15.5.8-.8-2.9 1.6 3.6 1.3l-.2 41.9zm77.3 9.6c1.4 3.2 3.2 9.7 5.7 9.7 2.3 0 3.4-5.1 5.1-9l38.5-91c4.3-10.3 8.7-6.5 8.7-9.9 0-1.4-.9-2-2.6-2-2.2 0-4.5.6-11.9.6-3.4 0-6.8-.6-10.2-.6-1.6 0-2.3.5-2.3 2 0 3.6 9.9.6 9.9 7.7.6 3.2-1.2 8.2-2.2 10.5L581 124.5c-.8 1.9-1.2 4.3-2.8 4.3-1.7 0-2.8-3.5-6.2-11.7l-27.1-63.7c-.8-1.9-1.3-3.9-1.4-6 0-5.6 6.5-5.7 6.3-7.9 0-.9-1.2-1.5-2.2-1.5-2.2 0-8 .6-12.2.6-4.6 0-9.4-.6-14.2-.6-1.1-.1-2.1.7-2.2 1.8v.3c0 3.4 8 .5 11.9 9.7l38.3 90.4zm177.4-82.1c-1.9 0-6.5 6.5-6.5 8.2s4.6 8 6.5 8c2 0 6.5-6.2 6.5-8s-4.5-8.2-6.5-8.2zm105.9-.8c-1.8 0-6.5 6.5-6.5 8.2s4.6 8 6.5 8c2 0 6.5-6.2 6.5-8 0-1.9-4.5-8.2-6.5-8.2zm56.9 52.6c-36.2 6-38.8 15.8-38.8 24 0 11 6.6 14.7 16.7 14.7 8.7-.1 17.1-3.3 23.6-9 2 5.1 6 7.9 12.1 7.9 2.2 0 9-.6 9-3.9 0-1.1-1.2-1.1-2-1.1s-2 .3-2.6.3c-8 0-6.6-9.1-6.6-14.4v-32c0-13.1-14.8-15.9-24.4-15.9-17.2-.5-25.8 10.4-26 17.5 0 2.8 4.6 5.1 7.3 5.1 2.9 0 3.4-1.2 3.4-2.9s-.9-4-.9-6.3c0-8.5 6-9.3 13.4-9.3 9.6 0 15.9 5.4 15.9 13.4l-.1 11.9zm0 21.7c0 8.2-10.5 12.5-16.1 12.5-8.2 0-12.7-3.4-12.7-12.2 0-13.6 18.9-16.1 28.8-18.2v17.9zm-271.5 12.3c-1.3.1-11.4-.1-11.4-6.6V81.8c0-1.5-.9-2.5-1.8-2.5-3.6 0-6.6 4.9-16.5 7.7-.8.1-1.4.9-1.4 1.7 0 3.2 8.5-.8 8.5 8.5v36.5c0 14.1-6.8 8.2-6.8 12.1.2 1.5 1.1 1.7 2.3 1.7 1.7 0 5.7-.6 10.7-.6 6.3 0 11.1.6 14.4.6h2.7c4.7-.5 9.5-.7 14.2-.6 8.7 0 12.4.6 14.5.6 1.7 0 2.5-.3 2.5-1.7 0-4.9-13.8 2.5-13.8-11.9V99.5c0-2 12.3-23.7 31.1-22.8 5.6.2 4.7.5 8.3-5.2 1.6-2.5-5.6-2.5-8.9-2.2-20.7 1.5-25.4 15.7-30.5 23.1V81.8c0-1.5-.9-2.5-1.8-2.5-3.6 0-6.6 4.9-18.6 7.7-.8.1-2 .8-2 1.7 0 3.2 11.1-.8 11.1 8.5v39.9c-.1 4.9-5.2 7.1-6.8 6.8zm202.2-.1c-1.5 0-11.6.6-11.6-8.8v-25.5c0-11.8-4.5-28.9-25.2-28.9-15 0-22.7 13.3-22.4 11.4V81.8c0-1.5-.9-2.5-1.8-2.5-3.6 0-6.6 4.9-19.5 7.7-.8.1-1.4.9-1.4 1.7 0 3.2 11.4-.8 11.4 8.5v38.3c0 7.1-5.2 8.1-7.6 8-1-.2-10.5-.2-10.5-6.3V81.8c0-1.5-.9-2.5-1.8-2.5-3.6 0-6.6 4.9-16.5 7.7-.8.1-2.7 5.4-1.8 5.2 5.1-.6 8.9-4.3 8.9 4.9v36.5c0 14.1-6.8 8.2-6.8 12.1.2 1.5 1.1 1.7 2.3 1.7 1.7 0 5.7-.6 10.7-.6 6.3 0 11.1.6 14.4.6h2.4c1.8 0 4.9-.6 13.1-.6 9 0 12.1.6 14.7.6 2.3 0 3.4-.3 3.4-2.2 0-4.2-13.6.3-13.6-10.4V99.4c-.2-2.5 5.3-12.1 18.2-12.1 12.5 0 18.1 11.6 18.1 19.3v28.9c0 10-6.6 7-6.6 10 0 1.5.8 1.9 2.8 1.9s5.3-.6 11.1-.6c7.6 0 11.4.6 13.4.6h3.6c1.7 0 5.7-.6 10.7-.6 6.3 0 11.1.6 14.4.6 2 0 2.9-.5 2.9-1.7 0-4-12.2-.6-12.2-8.5V81.8c0-1.5-.9-2.5-1.8-2.5-3.6 0-6.6 4.9-16.5 7.7-.8.1-1.4.9-1.4 1.7 0 3.2 8.5-.8 8.5 8.5v36.5c-.1 10.5-4 9.8-6 10.1z"/><path class="st0" d="M701.1 124.5c-10.9 0-14.7-10.7-14.7-19.8 0-8.2 2.4-18 14.1-18 10.9 0 14.7 11 14.7 20.4 0 5.2-1.4 17.4-14.1 17.4zm38.8-37.4c-.7-1.1-2.2-1.1-2.8-1.1l-.4.1c-3.9 1.5-8.1 2.4-12.3 2.6-1.6.1-3.2-.2-4.6-.8-1.3-.6-2.3-1.3-3.4-2-3.5-2.2-6.6-4.1-16.7-4.1-14.8 0-25.9 10.9-25.9 25.3 0 7.9 3.5 15.1 9.3 19.2-2.3 2.2-7.4 7.3-7.4 12.7 0 6.7 2.4 11.5 6.4 13.1 3.5 1.9 10.2 3 20.6 3.4 16.7.5 20.3 1.1 20.3 6.2 0 2.4-1.2 14.3-24.6 14.3-5.9 0-19.7-1.1-19.7-11.5 0-3.6.3-3.9 2.1-6.2.6-.7.7-1.7.3-2.5-.5-1-1.5-1.6-2.6-1.5-.3 0-.6 0-.8.1-2.9 1-7.4 2.5-7.4 9.8 0 13.8 17.8 17.4 27.2 17.4 25.9 0 35.1-12.7 35.1-23.6 0-14.8-16-14.8-24.7-14.8H701c-10.7 0-14.7-1.9-16.3-3.4-.7-.8-1.1-1.9-.9-2.9 0-3.1 3.3-7.4 6.4-7.4.6 0 1.1.1 1.7.3 2.9.7 6 1.1 9 .9 15.5 0 26.7-10.4 26.7-24.7-.1-2.9-.4-5.8-1.2-8.6-.3-.6-.6-1.2-.8-1.7-.2-.5-.4-.8-.6-1.2 5.3-.5 14.3-2.7 14.6-4.4.5-1.2.6-2.2.3-3zm528.8 56.8c-.9.4-1.3 1.5-.9 2.4.2.5.6.8 1.1 1 .6.3-.3 0 .2 0h1c4.7-.5 9.5-.7 14.2-.6 8.7 0 12.4.6 14.5.6 1.7 0 2.5-.3 2.5-1.7 0-4.9-13.8 2.5-13.8-11.9l.1-34.4c0-2 12.3-23.7 31.1-22.8 5.6.2 4.7.5 8.3-5.3 1.6-2.5-5.6-2.5-8.9-2.2-20.7 1.7-25.3 15.8-30.5 23.3V92l-.1-10.3c0-1.5-.9-2.5-1.8-2.5-3.5 0-6.6 4.9-18.5 7.7-.8.2-2 .8-2 1.7 0 3.2 11.1-.8 11.1 8.5V137c0 4.8-5.9 6.3-7.6 6.9zm202-51.2c3.1-9.3 8.3-5.4 8.3-9 0-1.2-1.1-1.8-2.9-1.8-1.6 0-4.3.6-7.9.6-4.3 0-6.8-.6-8.6-.6-2.8 0-4.6.2-4.6 1.7 0 3.4 9.9 1.1 9.9 9.4 0 1.1 0 2.5-1.9 8-10.4 33.4-11.9 34.9-11.9 34.9l-16.5-42 .3-.3c.3 1.4-1.1-.9-1.1-3.4 0-6.2 8.8-3.1 8.8-6.3 0-1.7-.9-2-3.3-2-2.3 0-6 .6-11.4.6-4.2 0-7.6-.3-10.8-.3-2.2 0-2.4.2-3.1 1.6-4.1 7.9 5.7 2.5 7.2 5.7l20.3 49.9c1.4 3.2 3.1 6.6 3.1 10.4 0 12.1-14.6 38.7-38.1 35.5-.8-.1-2.7-.6-3.4.3.7.2-2.1-.7 2.7 6.4 1.7 1.4 5 2.1 10.5.9 15.9-3.5 26.7-19.5 26.8-20 8.2-12.3 27.5-80.3 27.6-80.2zM954.5 50.5c0-11.1 10.4-6.8 10.4-11.1 0-1.9-4.2-1.5-4.9-1.5-4.8 0-9.7.6-14.7.6-4.2 0-8-.6-12-.6-.8 0-3.4.5-3.4 1.5 0 4.9 12.5 1.2 12.5 10.4v52.1c0 23.8 7.7 46.5 48.4 46.5 45 0 43.1-38.2 43.1-45.8V54.7c0-14.2 9.1-10.8 9.1-15.2 0-.9-1.2-1.7-2-1.7-2.8 0-5.6.6-8.5.6-6 0-12.1-.6-18.1-.6-.5 0-1.5.8-1.5 1.5 0 5.9 14.4-.6 14.4 15.1v50.1c0 18.2-6.6 37.4-35.7 37.4-20.9 0-36.9-11.3-36.9-36l-.2-55.4zm264.2 52.9c0-8.5 6.8-19.5 16.4-19.5 8.5 0 17.1 7.7 17.1 16.4 0 2.3-.9 3.1-3.1 3.1h-30.4zm41.1 4.1c3.6 0 5.2.2 5.2-2.6 0-6.2-8.3-24.6-27.4-24.6-19.3 0-30.3 16.5-30.3 36.3 0 10.2 8 31.7 31.2 31.7 13.9 0 27.3-11.1 27.3-14.7 0-.5 0-1.1-.6-1.1-3.4 0-8.5 8-21.8 8-9.4 0-24.9-7.6-24.9-33.1l41.3.1z"/><path class="st0" d="M1328.2 118.1c6.2 2.9 14.1 5.4 14.1 13.6 0 8-6.2 12.7-13.8 12.7-16.7 0-15-20.4-18.4-20.4-2.3 0-1.8 4.9-1.8 7.6 0 12.2 0 12.4 3.4 12.4 3.7 0 6.5 4.5 17.3 4.5 11.6-.2 20.9-9.6 20.9-21.2 0-9.9-4-14.7-12.8-18.4-16.2-6.5-20.3-9.7-20.3-14.8 0-6.3 4.8-9.9 10.8-9.9 14.1 0 15.4 13.5 17 13.5 2.3 0 1.7-1.9 1.7-6 0-1.1.2-6.3-.8-7.6-1.9-2.3-12.5-3.5-15.1-3.5-11.3 0-20.9 6.2-20.9 18.5 0 10.8 10.3 14.8 18.7 19zm61.3 12.3c0 15.9 10.2 17.9 17.3 17.9 10.8 0 19.2-5.2 19.2-7.6 0-1.2-.6-1.4-1.2-1.4-2.6 0-4.9 3.6-13.1 3.6-6.2 0-10.5-2.9-10.8-9.3v-45h20.1l2.1-5.7c.5-.8-1.3-.7-5.2-.7h-17c0-11.1.1-14.4-2-14.4-1.2 0-2.5-.9-3.1 3.9-1.3 10.3-9.6 14.3-9.7 15.5.8-.8-2.8 1.6 3.6 1.3l-.2 41.9zm-221.5-34c-1.8-4.6-2.6-7-2.6-7.5 0-4.6 8.7-2.6 8.7-5.6 0-1.7-1.4-1.7-3.5-1.7-1.8 0-3.8.6-9.4.6-10.1 0-10.1-.6-13-.6-3 0-3.2.8-3.2 1.8 0 2.7 5.5.5 8.4 7.3l23 52.6c.4 1.1 1.1 3.7 3 3.7 2.3 0 2.3-1.8 5.2-8.1l23.3-49.4c2.1-4.6 7.6-3.7 7.6-5.6 0-2.1-2.6-2.3-4.1-2.3-2.6 0-5.3.6-7.9.6-3.3 0-6.2-.6-9.4-.6-2 0-3.7.1-3.7 2 0 3.8 9.4-.4 9.4 8.1 0 6.9-3.8 13.3-6.7 19.4l-10.2 22-14.9-36.7zm-46.1 50.9h1.4c1.7 0 5.7-.6 10.7-.6 6.3 0 11.1.6 14.4.6 2 0 2.9-.5 2.9-1.7 0-4-12.2-.6-12.2-8.5V81.6c0-1.5-.9-2.5-1.8-2.5-3.6 0-6.6 4.9-16.5 7.7-.8.1-1.4.9-1.4 1.7 0 3.2 8.5-.8 8.5 8.5v36.5c0 10.5-4 10-5.7 10-.6 0-11.7.7-11.7-8.8v-25.5c0-11.7-4.5-28.9-25.2-28.9-15 0-22.7 13.3-22.4 11.4V81.6c0-1.5-.9-2.5-1.9-2.5-3.6 0-6.6 4.9-19.5 7.7-.8.1-1.4.9-1.4 1.7 0 3.2 11.4-.8 11.4 8.5v38.3c0 10-9.1 7-9.1 10 0 1.5.8 1.9 2.8 1.9s5-.6 13.1-.6c9 0 12.1.6 14.7.6 2.3 0 3.4-.3 3.4-2.2 0-4.2-13.6.3-13.6-10.4V99.2c-.2-2.5 5.2-12.1 18.2-12.1 12.5 0 18.1 11.6 18.1 19.3v28.9c0 10-6.6 7-6.6 10 0 1.5.8 1.9 2.8 1.9s5.3-.6 11.1-.6c7.6 0 11.4.6 13.4.6l2.1.1zm12.5-88.9c-1.8 0-6.5 6.5-6.5 8.2s4.6 8 6.5 8c2 0 6.5-6.2 6.5-8 0-1.9-4.5-8.2-6.5-8.2zm227.3 74.5c0 14.1-6.8 8.2-6.8 12 .2 1.5 1.1 1.7 2.3 1.7 1.7 0 5.7-.6 10.7-.6 6.3 0 11.1.6 14.4.6 2 0 2.9-.5 2.9-1.7 0-4-12.2-.6-12.2-8.5V80.9c0-1.5-.9-2.5-1.9-2.5-3.6 0-6.6 4.9-16.5 7.7-.8.1-1.4.9-1.4 1.7 0 3.2 8.5-.8 8.5 8.5v36.6zm6.1-74.5c-1.8 0-6.5 6.5-6.5 8.2s4.6 8 6.5 8c2 0 6.5-6.2 6.5-8 0-1.9-4.5-8.2-6.5-8.2zm103 81.9v-3.8h2.5c1.3 0 2.7.3 2.7 1.8 0 1.9-1.4 2-3 2h-2.2zm0 1.5h2.1l3.2 5.3h2.1l-3.5-5.4c1.8-.2 3.2-1.2 3.2-3.4 0-2.4-1.4-3.5-4.3-3.5h-4.6V147h1.8v-5.2zm-6.3-.8c.1-4.7 4.1-8.5 8.8-8.3 4.7.1 8.5 4.1 8.3 8.8-.1 4.6-3.9 8.3-8.5 8.3-4.7 0-8.6-3.7-8.6-8.5v-.3zm8.6 10.6c5.8-.1 10.5-4.9 10.4-10.7-.1-5.8-4.9-10.5-10.7-10.4-5.8.1-10.4 4.8-10.4 10.5 0 5.8 4.7 10.6 10.5 10.6h.2z"/><path class="st1" d="M233.4 0h-41.3c-7.2-.1-9.8 2.6-12 5.9l-30.7 45.5L120 6.8l-1-1.5c-.5-.8-1.3-1.3-2.2-1.3-.9.1-1.7.6-2.2 1.3l-1 1.5-28.4 44.6L53.6 5.9c-2.2-3.3-4.8-6-12-5.9H.3v37.1h23c4.8 0 7.1.2 10.4 4.2l1.4 2L81.4 116c.9 1.4 2.4 2.2 4 2.4 1.7-.1 3.3-.9 4.3-2.4l27.1-40.6 28.1 40.5s1.6 2.4 4 2.5c1.7-.1 3.2-1 4-2.4l45.7-72.7 1.4-2c2.4-3.7 5.4-4.1 10.2-4h23l.2-37.3z"/><path class="st1" d="M174.5 104l-25 39.7-32.2-46.8-24.8 36.5 52.3 82.1c1.8 3.1 3.2 3.5 4 3.6 1.6.1 2.5-.8 4.2-3.6l41.1-74.9c1.9-3.7 5.6-6.2 9.8-6.4h29.5V97h-46.2c-8.4 0-12.7 7-12.7 7z"/></svg>